STARTFONT 2.3
FONT -FontForge-Fontdiner Swanky-Book-R-Normal--24-240-72-72-P-151-ISO10646-1
SIZE 24 72 72  2
FONTBOUNDINGBOX 34 37 -6 -12
COMMENT "Generated by fontforge, http://fontforge.sourceforge.net"
COMMENT "Copyright (c) 2010 by Font Diner, Inc. All rights reserved."
STARTPROPERTIES 40
FOUNDRY "FontForge"
FAMILY_NAME "Fontdiner Swanky"
WEIGHT_NAME "Book"
SLANT "R"
SETWIDTH_NAME "Normal"
ADD_STYLE_NAME ""
PIXEL_SIZE 24
POINT_SIZE 240
RESOLUTION_X 72
RESOLUTION_Y 72
SPACING "P"
AVERAGE_WIDTH 151
CHARSET_REGISTRY "ISO10646"
CHARSET_ENCODING "1"
FONTNAME_REGISTRY ""
CHARSET_COLLECTIONS "ISO10646-1"
BITS_PER_PIXEL 2
FONT_NAME "FontdinerSwanky-Regular"
FACE_NAME "Fontdiner Swanky Regular"
COPYRIGHT "Copyright (c) 2010 by Font Diner, Inc. All rights reserved."
FONT_VERSION "1.001"
FONT_ASCENT 19
FONT_DESCENT 5
UNDERLINE_POSITION -2
UNDERLINE_THICKNESS 2
X_HEIGHT 13
CAP_HEIGHT 14
RAW_ASCENT 799
RAW_DESCENT 200
NORM_SPACE 8
RELATIVE_WEIGHT 40
RELATIVE_SETWIDTH 50
SUPERSCRIPT_X 0
SUPERSCRIPT_Y 11
SUPERSCRIPT_SIZE 15
SUBSCRIPT_X 0
SUBSCRIPT_Y 3
SUBSCRIPT_SIZE 15
AVG_LOWERCASE_WIDTH 151
AVG_UPPERCASE_WIDTH 185
ENDPROPERTIES
CHARS 231
STARTCHAR space
ENCODING 32
SWIDTH 320 0
DWIDTH 8 0
BBX 1 1 0 0
BITMAP
00
ENDCHAR
STARTCHAR exclam
ENCODING 33
SWIDTH 305 0
DWIDTH 7 0
BBX 8 22 0 -1
BITMAP
0500
0BFD
0BFC
0BFC
0BF8
0FF8
0FF4
0FF0
0FF0
0FE0
0FE0
0FD0
0FD0
1FC0
1FC0
1F80
0640
0500
7F40
BF80
7F40
0400
ENDCHAR
STARTCHAR quotedbl
ENCODING 34
SWIDTH 369 0
DWIDTH 9 0
BBX 9 7 0 9
BITMAP
BF3F80
BF3F40
BE3F40
7E3F40
7E2F40
7E2F00
151500
ENDCHAR
STARTCHAR numbersign
ENCODING 35
SWIDTH 702 0
DWIDTH 17 0
BBX 17 17 0 0
BITMAP
0054014000
00FD07D000
00FC07D000
15FC07D000
3FFFFFFF40
7FFFFFFF40
6AFEAFEA00
01F80BC000
01F40FC000
01F40F8000
6AFAAFEA00
BFFFFFFE00
BFFFFFFE00
02F01F9500
02F02F8000
02E02F4000
0140150000
ENDCHAR
STARTCHAR dollar
ENCODING 36
SWIDTH 545 0
DWIDTH 13 0
BBX 13 21 0 -3
BITMAP
00590000
00BE0000
00BD0000
00BD0100
0BFFD200
2FEBFB00
BE00BF00
BE001F00
BFD00700
7FFE4100
1FFFF400
06FFFE00
206FFF40
7401BF80
7D003F80
7FD57F80
BBFFFE00
91BFA400
403F0000
003F0000
003F0000
ENDCHAR
STARTCHAR percent
ENCODING 37
SWIDTH 657 0
DWIDTH 16 0
BBX 17 20 0 -1
BITMAP
0000054000
06900BE000
3FF81FD000
BDBD2FC000
B83D3F4000
BC7D7F0000
3FF8BE0000
1BA1FC0000
0002F80000
0003F40000
0007E00000
000FD00000
001FC04000
002F4BF900
003F2FBF00
007E3E1F40
00FD3E1F40
01F81FBE00
02F40BF800
01B0004000
ENDCHAR
STARTCHAR ampersand
ENCODING 38
SWIDTH 668 0
DWIDTH 16 0
BBX 19 21 0 -3
BITMAP
006F900000
07FBF80000
0BD0FD0000
0FC07D0000
0FD07D0000
0BF0BC0000
03FDF40000
01FFD00000
00BF804000
02FFD09000
0BDFF07000
1F87FCB800
3F42FEFE00
7F40BFE500
7FD03FD5A4
3FFABFFF80
1FFFFBFD00
02FE47E400
00000B8000
0000190000
0000100000
ENDCHAR
STARTCHAR quotesingle
ENCODING 39
SWIDTH 177 0
DWIDTH 4 0
BBX 4 7 0 9
BITMAP
BF
BF
BE
7E
7E
7E
14
ENDCHAR
STARTCHAR parenleft
ENCODING 40
SWIDTH 384 0
DWIDTH 9 0
BBX 8 24 1 -4
BITMAP
000A
007C
02F4
0BE0
1FC0
3F80
7F40
7F00
BF00
BE00
BE00
BE00
BE00
BF00
BF00
7F40
3F80
2FC0
1FD0
0BE0
02F4
00BC
001A
0001
ENDCHAR
STARTCHAR parenright
ENCODING 41
SWIDTH 375 0
DWIDTH 9 0
BBX 8 24 0 -4
BITMAP
6400
2E00
0FC0
07F0
02F8
01FC
00FD
00BE
00BF
00BF
007F
007F
00BF
00BF
00BE
00FE
01FD
02FC
03F4
0BE0
0FC0
2E00
B400
4000
ENDCHAR
STARTCHAR asterisk
ENCODING 42
SWIDTH 640 0
DWIDTH 15 0
BBX 16 15 0 0
BITMAP
02E03800
0BF07F40
03F8BF80
01FDFF00
00BFFC00
BA7FF559
BFFFFFFD
BFFFFFFC
BEBFFAAC
407FF800
01FDFE00
03F8FF40
0BF0BF40
02E07800
00500000
ENDCHAR
STARTCHAR plus
ENCODING 43
SWIDTH 607 0
DWIDTH 15 0
BBX 15 14 0 1
BITMAP
002FD000
002FD000
002FC000
002FC000
002FC000
BFFFEAA4
BFFFFFF4
BFFFFFF4
AAAFD550
001FC000
001F8000
001F8000
001F8000
001F8000
ENDCHAR
STARTCHAR comma
ENCODING 44
SWIDTH 226 0
DWIDTH 5 0
BBX 5 7 0 -5
BITMAP
1A00
7FC0
BFC0
7FC0
0B80
0E00
1800
ENDCHAR
STARTCHAR hyphen
ENCODING 45
SWIDTH 549 0
DWIDTH 13 0
BBX 11 5 1 6
BITMAP
554000
7FFFF8
7FFFF8
BFFFF8
6AAA54
ENDCHAR
STARTCHAR period
ENCODING 46
SWIDTH 226 0
DWIDTH 5 0
BBX 5 4 0 -2
BITMAP
2F40
BFC0
BFC0
2F40
ENDCHAR
STARTCHAR slash
ENCODING 47
SWIDTH 600 0
DWIDTH 14 0
BBX 16 23 -1 -2
BITMAP
000000A0
000001FD
000003FF
00000BFD
00001FF8
00002FF0
00007FD0
0000FF80
0001FF40
0003FE00
000BFC00
001FF400
002FE000
007FC000
00FF4000
02FE0000
03FD0000
0BF80000
1FF00000
2FD00000
7F800000
6F000000
05000000
ENDCHAR
STARTCHAR zero
ENCODING 48
SWIDTH 740 0
DWIDTH 18 0
BBX 18 15 0 0
BITMAP
006FFF8000
02FFFFF400
0BFE57FD00
2FF000FF40
3FD000BF80
7F80003FC0
7F80003FD0
BF80002FD0
7F80003FC0
7FC0003FC0
3FD000BF80
1FF001FF00
07FE5BFC00
01FFFFE000
001BFA4000
ENDCHAR
STARTCHAR one
ENCODING 49
SWIDTH 503 0
DWIDTH 12 0
BBX 14 19 -1 -1
BITMAP
00001000
006BF000
6FFFE000
16FFE000
002FE000
001FE000
001FE000
001FE000
001FE000
001FE000
001FE000
001FE000
001FE000
000FD000
000FD000
000FD000
002FE400
06FFFE40
1AAAAA90
ENDCHAR
STARTCHAR two
ENCODING 50
SWIDTH 638 0
DWIDTH 15 0
BBX 15 20 0 -1
BITMAP
40000000
20014000
346FFD00
3EFFFFC0
2FF96FE0
2FD00BF4
1F4003F8
1E0003F8
1C0007F4
08000FF0
04007FD0
0007FE04
007FE424
02FE4034
0BF400B4
2FD000F0
7FD55AF0
FFFFFFF0
FFFFFFF0
5556AAA0
ENDCHAR
STARTCHAR three
ENCODING 51
SWIDTH 620 0
DWIDTH 15 0
BBX 16 20 -1 -2
BITMAP
20000000
281AE900
1DBFFF80
0FFEBFE0
0FE00BF8
0B8003F8
0B0002FC
050003F8
00001BF4
000FFFE0
000FFFF4
04056FFC
05000BFD
0A0003FD
0F4003FD
1FD00BFC
1FF9BFF4
29FFFFD0
301BF900
50000000
ENDCHAR
STARTCHAR four
ENCODING 52
SWIDTH 606 0
DWIDTH 15 0
BBX 15 20 -1 -2
BITMAP
00000200
00000B00
00001F00
00007F00
0001FF00
0003FF00
000BFF00
002FFF00
00BEBF04
01F8BF08
07F0BF1C
0FD0BF3C
2FFFFFFC
BFFFFFFC
0000BE28
0000BE18
0000BE08
0000BE00
001BFFD0
00AAAAA4
ENDCHAR
STARTCHAR five
ENCODING 53
SWIDTH 610 0
DWIDTH 15 0
BBX 14 19 0 -1
BITMAP
00000590
016BFFE0
BFFFFFD0
BFFFABD0
BF4001C0
7F0000C0
7F050080
3FFFF840
3FFFFF40
2E56FFC0
14007FE0
00001FF0
10001FF0
24001FE0
3D003FE0
3F95FFC0
7FFFFF40
72FFFD00
401A9000
ENDCHAR
STARTCHAR six
ENCODING 54
SWIDTH 619 0
DWIDTH 15 0
BBX 15 22 0 -2
BITMAP
00000040
00000080
00000180
001A42C0
01FFFBC0
07FFFFC0
0BF96FD0
1FE006D0
3FD00090
7FEBE910
BFFFFF80
BFF46FE0
FFC00BF4
FF8007F8
FF4003F8
FF0003F8
BF4003F8
7F8007F4
3FD00FF0
1FF9BFD0
02FFFE00
005A9400
ENDCHAR
STARTCHAR seven
ENCODING 55
SWIDTH 598 0
DWIDTH 14 0
BBX 16 19 0 -2
BITMAP
BFFFAAA9
7FFFFFFD
3FABFFFC
3E001FF4
2E002FF0
1D003FE0
0C003FD0
04007FC0
0000BF40
0000FF00
0000FE00
0001FD00
0002F800
0003F400
0003F000
000BE000
00BFFD00
0BFFFFD0
00000150
ENDCHAR
STARTCHAR eight
ENCODING 56
SWIDTH 642 0
DWIDTH 15 0
BBX 16 20 0 -3
BITMAP
006FE400
02FFFF40
0BF86FD0
1FE00FF0
2FD00BF4
3FC007F4
2FD00BF4
1FE00FF0
0BF9BFD0
0BFFFFD0
2FFEBFF4
7FE00FFC
BF8007FD
FF8003FE
FF8003FD
BFD00BFC
3FF42FF4
0BFFFFD0
01BFFE00
00010000
ENDCHAR
STARTCHAR nine
ENCODING 57
SWIDTH 610 0
DWIDTH 15 0
BBX 15 20 0 -3
BITMAP
01BFE400
0BFFFE00
2FE07F80
7F800FE0
BF400BF0
FF000BF4
FF000BF4
FF400FF8
BFC01FF4
3FE5BFF4
1FFFFFF4
02FFFFF0
20150FE0
2D002FD0
1F80BF80
1FFFFF00
0FFFFD00
0E2FE000
0D000000
08000000
ENDCHAR
STARTCHAR colon
ENCODING 58
SWIDTH 223 0
DWIDTH 5 0
BBX 5 10 0 -2
BITMAP
7F40
FFC0
FF80
6E40
0000
0000
6E00
BF80
FFC0
7F40
ENDCHAR
STARTCHAR semicolon
ENCODING 59
SWIDTH 228 0
DWIDTH 5 0
BBX 5 13 0 -5
BITMAP
7F40
BFC0
BFC0
2E40
0000
0000
2900
BF80
FFC0
BF80
0F40
1E00
2400
ENDCHAR
STARTCHAR less
ENCODING 60
SWIDTH 563 0
DWIDTH 14 0
BBX 14 16 0 0
BITMAP
00000050
000007E0
00002FE0
0001FFF0
001FFFE0
00BFFE40
0BFFF400
7FFF4000
7FF80000
0BFD0000
01BF8000
001FE000
0002FD00
00007F40
00000BD0
00000180
ENDCHAR
STARTCHAR equal
ENCODING 61
SWIDTH 531 0
DWIDTH 13 0
BBX 13 9 0 2
BITMAP
FFFEAA40
FFFFFF40
FFFFFF40
FAAAAA40
00000000
AABFFF80
FFFFFF40
FFFFFF40
5AAABF40
ENDCHAR
STARTCHAR greater
ENCODING 62
SWIDTH 576 0
DWIDTH 14 0
BBX 14 16 0 0
BITMAP
20000000
7D000000
7F900000
BFF80000
BFFF4000
0BFFF400
01BFFE00
001BFFE0
0001FFD0
0003FE00
001FF400
007F8000
02FD0000
0FE00000
3E000000
24000000
ENDCHAR
STARTCHAR question
ENCODING 63
SWIDTH 592 0
DWIDTH 14 0
BBX 14 22 0 -1
BITMAP
10000000
28000000
2EFF9000
3FFFFE00
7901BF80
60002FD0
80000FF0
40000BF0
00000FF0
00001FF0
01407FD0
02FFFF80
03FFFD00
03FD4000
03F80000
07F00000
01A00000
05000000
3FC00000
7FE00000
7FE00000
1A800000
ENDCHAR
STARTCHAR at
ENCODING 64
SWIDTH 792 0
DWIDTH 19 0
BBX 20 17 0 -1
BITMAP
001AFFE400
00BFEAFE00
07F9001FC0
1FD06A47F0
3F47EFD1F8
7E0F42F0FC
BD1F81F4BD
FC0F41F47E
FC06AAF47E
FC1FEBF07E
FD2F42F0BD
BE2F42F0BC
7F1FFFF0F8
2F81A7F1F0
0BE401FFD0
01FE406900
001ABE4000
ENDCHAR
STARTCHAR A
ENCODING 65
SWIDTH 788 0
DWIDTH 19 0
BBX 26 22 -3 -6
BITMAP
001FFAA0000000
0001FFF4000000
00001FF8000000
000007FD000000
00000BFE000000
00001FFF000000
00003DBF800000
00007C7FC00000
0000F42FE00000
0001E01FF00000
0003FFAFF80000
0007FFFFFC0000
000FA557FE0000
002E0002FF0000
007D0000FF8000
07FE0000BFC000
BFFFD0007FE000
0556A4002FFE40
000000003FFFE0
00000000FFE400
00000003E40000
00000004000000
ENDCHAR
STARTCHAR B
ENCODING 66
SWIDTH 774 0
DWIDTH 19 0
BBX 21 19 -2 -3
BITMAP
BFFAAA940000
1FFFFFFFD000
01FFEABFFD00
00BF8002FF00
00BF8000BF80
007F80007F80
007F8001FF40
007FD56FFD00
007FFFFFF400
003FFFFF8000
003FD5BFF400
003FC007FD00
003FD002FE00
002FD002FE00
002FD01BFE00
002FD6BFF800
00BFFFFF9000
07FFFE940000
6A5400000000
ENDCHAR
STARTCHAR C
ENCODING 67
SWIDTH 766 0
DWIDTH 18 0
BBX 18 20 0 -2
BITMAP
0000000010
0001550030
002FFFE4A0
01FFFFFEE0
07FF917FD0
1FF8000BD0
2FF00003C0
3FE00001C0
7FD0000080
7FC0000000
7FC0000000
7FC0000000
7FD0000040
3FE0000080
1FF40001C0
0FFD0007C0
03FF906FD0
00BFFFFE90
001BFFE420
0000550010
ENDCHAR
STARTCHAR D
ENCODING 68
SWIDTH 833 0
DWIDTH 20 0
BBX 22 17 -2 -1
BITMAP
6FFFFFFE4000
06FFFFFFF400
002FF95BFE00
000FF800BF80
000FF8003FD0
000BF8001FE0
000BF4001FF0
000BF4000FF0
000BF4000FF0
0007F4001FF0
0007F4001FE0
0007F4002FD0
0007F4007FC0
0007F001FF40
001BFFFFFD00
01BFFFFF9000
06A955500000
ENDCHAR
STARTCHAR E
ENCODING 69
SWIDTH 781 0
DWIDTH 19 0
BBX 20 19 -2 -1
BITMAP
0000000015
0055AABFFE
6FFFFFFFFE
01BFF5403E
001FF0002E
001FF0041E
001FF0180A
001FF03805
001FF07801
001FF5F800
000FFFF404
000FFFF408
000FE0B40C
000FE0741C
000FE0242C
000FE0043C
001FF5AABC
06FFFFFFFC
1AAA955554
ENDCHAR
STARTCHAR F
ENCODING 70
SWIDTH 731 0
DWIDTH 18 0
BBX 19 19 -2 -2
BITMAP
00156AAFF8
6FFFFFFFF8
01BFF550F8
002FF00078
001FE00038
001FE02028
001FE07018
001FE0B008
001FF6F004
001FFFF000
001FFFF000
001FE1F000
001FE0B000
001FE03000
001FE01000
001FE00000
006FF40000
07FFFF9000
1555555000
ENDCHAR
STARTCHAR G
ENCODING 71
SWIDTH 828 0
DWIDTH 20 0
BBX 22 19 0 -1
BITMAP
000000002000
00016940E000
006FFFFBE000
01FFFFFFE000
0BFF407FD000
1FF8000BD000
2FF00002D000
3FE00001D000
7FD000008000
7FD000004000
7FC01BFFFF90
7FD000BFF400
7FD0000FE000
3FE0000FE000
1FF4000FF000
0BFD002FF000
03FF95BFF000
00BFFFF87400
001AFE901400
ENDCHAR
STARTCHAR H
ENCODING 72
SWIDTH 797 0
DWIDTH 19 0
BBX 23 19 -2 -2
BITMAP
000006AAAAA4
0000006FFF40
7FFFFE0BF800
06FFE007F800
00BF8007F800
00BF8007F800
00BF8007F800
00BF4007F800
00BF4007F800
00BFEAABF800
00BFFFFFF800
007FE957F800
007F4007F400
007F4003F400
007F4003F400
007F401BFD00
007F41FFFFE4
01BF90000000
6FFFFE400000
ENDCHAR
STARTCHAR I
ENCODING 73
SWIDTH 445 0
DWIDTH 11 0
BBX 14 19 -2 -2
BITMAP
6A555550
0BFFFF90
007FF400
002FE000
001FE000
001FE000
001FE000
001FE000
001FE000
001FE000
001FE000
001FE000
000FE000
000FE000
000FE000
000FD000
000FD000
006FF800
0BFFFF90
ENDCHAR
STARTCHAR J
ENCODING 74
SWIDTH 718 0
DWIDTH 17 0
BBX 21 21 -2 -3
BITMAP
000000000580
0000016BFD00
0016BFFFE000
00056BFF4000
000000BF4000
000000BF8000
0000007F8000
0000007FC000
0000003FC000
0000003FC000
0000002FD000
0000002FD000
0000002FD000
5555502FD000
6FFF402FD000
07F8002FC000
01F8003F8000
00FC00BF4000
00BF42FE0000
002FFFF80000
0006FF900000
ENDCHAR
STARTCHAR K
ENCODING 75
SWIDTH 934 0
DWIDTH 22 0
BBX 28 20 -1 -2
BITMAP
05555A90000000
6FFFFD00000000
01FFD01BFFFE40
00BFC000BFE000
00BFC002FD0000
007FC01FE00000
007FC1BF400000
007F8BF8000000
007FFFF4000000
007FFAFD000000
007FD0BF400000
003F803FC00000
003F801FE00000
003F800BF80000
003F8003FD0000
003F8001FF4000
01FFE400BFC000
1FFFFF903FF000
00000001BFFE40
0000001BFFFFF9
ENDCHAR
STARTCHAR L
ENCODING 76
SWIDTH 712 0
DWIDTH 17 0
BBX 19 19 -2 0
BITMAP
6FFFFFE400
06FFFF4000
002FF40000
001FF40000
001FF40000
001FF40000
000FF40000
000FF00000
000FF00000
000FF00008
000FF0000C
000FF0001C
000FF0002C
000BF0007C
000BF000BC
000BF000FC
001FFFAAFC
01FFFFFFFC
1AAA555500
ENDCHAR
STARTCHAR M
ENCODING 77
SWIDTH 1033 0
DWIDTH 25 0
BBX 27 19 -1 -1
BITMAP
00000000015550
BFFFD0000BFFE4
07FFF0001FFE00
00BFF4002FF800
007FFC007FF800
007FFD00FFF800
007FFF01FFF800
007EFF43EFF800
003DBFCBCFF800
003D7FDF8FF400
003E2FFF0FF400
003E0FFE0FF400
003E0BFC0FF400
002E03F80FF400
002E01F40FF400
002E00A00FF400
002E40502FF900
06FFF902FFFFE4
6AAAAA90000000
ENDCHAR
STARTCHAR N
ENCODING 78
SWIDTH 840 0
DWIDTH 20 0
BBX 24 19 -2 -1
BITMAP
000001555555
6FFFF06FFFF8
02FFF806FF80
002FFE002E00
001FFF402E00
001FFFD02E00
001FBFF02E00
001F2FFC2E00
001F0FFE2E00
001F03FF6E00
001F01FFFE00
001F007FFD00
001F001FFD00
001F400BFD00
001F4002FD00
006F9000FD00
07FFFE403D00
6AFFFFE41D00
000000000500
ENDCHAR
STARTCHAR O
ENCODING 79
SWIDTH 808 0
DWIDTH 19 0
BBX 19 16 0 -1
BITMAP
0006AA9000
00BFFFFD00
07FFAAFF80
1FFD007FE0
2FF0001FF4
7FD0000FF8
7FC0000BF8
BFC0000BFC
7FC0000BFC
7FD0000BF8
3FE0001FF4
1FF4002FE0
0BFD01FF80
01FFFFFE00
002FFFE400
0000540000
ENDCHAR
STARTCHAR P
ENCODING 80
SWIDTH 746 0
DWIDTH 18 0
BBX 20 17 -2 -1
BITMAP
5555000000
1BFFFFFA40
01BFFFFFF4
002FD016FE
002FD0007F
002FD0007F
002FD001FE
002FE6AFF4
002FFFFE40
001FF54000
001FE00000
001FE00000
001FF00000
001FF00000
007FF40000
06FFFF9000
1AAAAAA400
ENDCHAR
STARTCHAR Q
ENCODING 81
SWIDTH 789 0
DWIDTH 19 0
BBX 21 23 0 -7
BITMAP
000169400000
006FFFF40000
02FFEBFE0000
0BFD00BF8000
1FF4003FD000
3FD0001FF000
3FC0000FF400
7FC0000FF400
7FC0000FF400
3FC0000FF000
2FD0001FF000
1FF0003FD000
0BFD01FF8000
02FFEFFE0000
006FFFE40000
00016FD00000
00000FE00000
00000FF40000
00000BFFE940
00000BFFF940
00002FFE4000
0000FE400000
000690000000
ENDCHAR
STARTCHAR R
ENCODING 82
SWIDTH 826 0
DWIDTH 20 0
BBX 28 22 -2 -6
BITMAP
55555500000000
0BFFFFFE400000
007FFFFFF80000
001FE006FF0000
001FE0003F4000
001FE0003F4000
001FE001FE0000
001FFABFE40000
001FFFFF400000
001FF57F800000
001FF02FD00000
001FF00FF00000
001FF007F80000
001FF003FD0000
006FF901FF4000
06FFFFD0BF8000
1AAAA9547FEAA9
000000002FFFD0
000000002FF900
00000000BF4000
00000002E40000
00000005000000
ENDCHAR
STARTCHAR S
ENCODING 83
SWIDTH 661 0
DWIDTH 16 0
BBX 16 19 0 -2
BITMAP
00000001
006A9409
0BFFFE6C
2FE56FFC
7F4002FC
BF400078
BFE40018
7FFF9004
2FFFFE40
0BFFFFE0
006FFFF8
0001BFFD
18000BFE
1D0003FE
1F4003FD
2FE96FF4
29FFFFD0
241AA500
20000000
ENDCHAR
STARTCHAR T
ENCODING 84
SWIDTH 754 0
DWIDTH 18 0
BBX 16 17 1 -1
BITMAP
FFFFFFFF
FFFFFFFF
B81FF02F
B41FF01E
B01FF00E
A01FF00A
501FF005
400FF001
000FF000
000FE000
000FE000
000FE000
000FE000
000FE000
007FF900
07FFFF90
15555554
ENDCHAR
STARTCHAR U
ENCODING 85
SWIDTH 725 0
DWIDTH 17 0
BBX 21 17 -2 -1
BITMAP
5500006AAA40
1BFFE80BFD00
01FF9002F000
00FF4002F000
00FF4001F000
00FF4001F000
00FF4001F000
00FF4001F000
00FF4001F000
01FF4001E000
00FF4001E000
00FF4001E000
00BFC003D000
007FE00BC000
002FFEBF4000
000BFFFD0000
00006A500000
ENDCHAR
STARTCHAR V
ENCODING 86
SWIDTH 786 0
DWIDTH 19 0
BBX 25 19 -3 -2
BITMAP
00005A40000000
006BF806940000
6FFFD000BFE940
05BFD0001FE500
002FF0001F0000
000FF4003D0000
000BF800780000
0007FD00F40000
0002FE01E00000
0001FF03D00000
0000BF8B800000
00007FCF400000
00002FFE000000
00001FFD000000
00000BF8000000
000007F0000000
000002E0000000
000001C0000000
00000040000000
ENDCHAR
STARTCHAR W
ENCODING 87
SWIDTH 1026 0
DWIDTH 25 0
BBX 30 18 -3 -2
BITMAP
0001569001500000
6FFFFE0000BFEA50
06FFE0018007FF90
003FD003C001F400
002FE007E002E000
001FF00FF403D000
000FF41FF807C000
0007FC2FFD0B4000
0003FD7FFF0F0000
0002FEBEFF5E0000
0000FFFCBFFD0000
0000BFF83FFC0000
00007FF02FF80000
00003FE00FF00000
00001FC00BE00000
00000F8007D00000
00000B4002C00000
0000060001800000
ENDCHAR
STARTCHAR X
ENCODING 88
SWIDTH 860 0
DWIDTH 21 0
BBX 24 17 -2 -2
BITMAP
00155A900000
1BFFFD06AAA8
005FF406FF90
0007FD02F800
0002FF0BD000
0000BFAF4000
00003FFD0000
00001FF80000
00002FFE0000
0000BFFF4000
0002F8FFC000
001FD07FE000
007F401FF800
1BFF400BFE00
6AAFE00BFFE4
000000BFFFEA
000000400000
ENDCHAR
STARTCHAR Y
ENCODING 89
SWIDTH 848 0
DWIDTH 20 0
BBX 25 18 -3 -2
BITMAP
05556A40000000
6FFFF900000000
01BFF401FFFA40
000BFC002FE400
0002FE001E4000
0000FF807C0000
00003FD1F00000
00001FFBD00000
000007FF400000
000001FD000000
000000FD000000
000001FD000000
000001FD000000
000001FE000000
000001FE000000
000001FF400000
00001FFFF90000
0001AAAAAA4000
ENDCHAR
STARTCHAR Z
ENCODING 90
SWIDTH 685 0
DWIDTH 16 0
BBX 17 15 0 0
BITMAP
15555AAA80
7FFFFFFF40
7FEAAFFE00
3D001FF800
2D007FF000
1C01FFD000
0C03FF4000
040BFE0100
002FF80300
00BFF00700
01FFD00F00
07FF401F00
0FFFA97F00
3FFFFFFE00
5AAAAAA900
ENDCHAR
STARTCHAR bracketleft
ENCODING 91
SWIDTH 380 0
DWIDTH 9 0
BBX 10 23 1 -3
BITMAP
6AAA50
BFFE40
BFE000
7F4000
7F4000
7F4000
7F4000
7F4000
7F4000
7F4000
7F4000
7F4000
7F4000
7F4000
7F0000
3F0000
3F0000
3F0000
3F0000
3F0000
3F4000
3FF400
2FFE40
ENDCHAR
STARTCHAR backslash
ENCODING 92
SWIDTH 680 0
DWIDTH 16 0
BBX 16 23 0 -2
BITMAP
07400000
2F800000
BFD00000
3FF00000
1FF80000
0BFC0000
03FE0000
01FF4000
00BFC000
007FD000
002FF000
000FF800
0007FD00
0002FE00
0000FF40
00007FC0
00003FD0
00001FF0
00000BF8
000003FD
000001FE
000000BD
00000020
ENDCHAR
STARTCHAR bracketright
ENCODING 93
SWIDTH 371 0
DWIDTH 9 0
BBX 9 23 -1 -3
BITMAP
6AAA80
1FFFC0
01FFC0
003FC0
003F80
003F80
003F80
003F80
003F80
003F80
002F80
002F80
002F80
002F80
002F80
002F80
002F40
002F40
002F40
002F40
007F40
06FF40
2FFF40
ENDCHAR
STARTCHAR asciicircum
ENCODING 94
SWIDTH 671 0
DWIDTH 16 0
BBX 16 14 0 7
BITMAP
00024000
0007C000
000FE000
002FF400
007FF800
00BFFD00
01FFBF00
03FE2F80
0BFD0BD0
0FF803F0
2FF401F8
7FE0007D
FFD0002F
6B800004
ENDCHAR
STARTCHAR underscore
ENCODING 95
SWIDTH 840 0
DWIDTH 20 0
BBX 20 5 0 -3
BITMAP
AAAAAAAABF
FFFFFFFFFF
FFFFFFFFFF
FFFFFFFFFF
5555555AAA
ENDCHAR
STARTCHAR grave
ENCODING 96
SWIDTH 707 0
DWIDTH 17 0
BBX 5 6 7 14
BITMAP
1900
BE00
7F00
3F40
1F80
0A40
ENDCHAR
STARTCHAR a
ENCODING 97
SWIDTH 572 0
DWIDTH 14 0
BBX 15 15 0 -1
BITMAP
00050000
02FFF400
0BEAFE00
2F807F00
3FC03F40
2F803F80
05003F80
0BFFFF40
3FE6BF40
7F407F40
7F407F40
7FE6FF00
1BFFFF00
0055FFE4
00009554
ENDCHAR
STARTCHAR b
ENCODING 98
SWIDTH 723 0
DWIDTH 17 0
BBX 20 22 -3 -4
BITMAP
005AB00000
6FFFF00000
06FFF00000
002FF00000
001FF00000
001FE00000
001FE00000
001FE00000
001FE00000
001FE00000
000FE05400
000FFFFFE0
000FFFBFFC
000FE007FE
000FD001FF
000FD000FF
000FD000FF
000FD002FD
000FD01BF4
002FFFFF90
01FFFFE900
0695400000
ENDCHAR
STARTCHAR c
ENCODING 99
SWIDTH 589 0
DWIDTH 14 0
BBX 14 14 0 -2
BITMAP
001AE400
01FFFF40
0BF96FD0
1FE01FE0
2FC01FE0
3FC00B80
7F800000
7F800010
3FC00020
2FE000E0
1FF907D0
07FFFF80
01BFFD00
00155000
ENDCHAR
STARTCHAR d
ENCODING 100
SWIDTH 713 0
DWIDTH 17 0
BBX 18 23 1 -4
BITMAP
0001AA5500
00002FFF00
000002FE00
000002FE00
000002FE00
000002FD00
000002FD00
000002FC00
000002FC00
001502FC00
06FFFBF800
1FFFFFF800
7FD01BF800
BF4003F400
FF0003F400
FE0003F000
FE0007F000
BF4007F000
3FD007E000
0FFEAFE000
01BFFFE000
000147FF90
000006A500
ENDCHAR
STARTCHAR e
ENCODING 101
SWIDTH 593 0
DWIDTH 14 0
BBX 14 13 0 -2
BITMAP
006FE400
02FFFE00
0FF5BF80
2FD01FD0
3F800BE0
7FAA5BF0
7FFFFFF0
3FAA9550
2FC00000
1FE00180
0BFFAF40
01FFF800
00154000
ENDCHAR
STARTCHAR f
ENCODING 102
SWIDTH 507 0
DWIDTH 12 0
BBX 15 33 -1 -10
BITMAP
0001FE40
000BFFD0
002FC3F0
003F42F4
007F03F8
007F02F4
00BF0050
00BF0000
00BF0000
00BF0000
007F4000
2FFFFF80
2FFFFF80
007F8000
003F8000
003FC000
002FC000
002FC000
001FD000
001FD000
001FD000
000FE000
000FE000
000FE000
000BF000
000BF000
640BF000
FD0BF000
FD0BE000
FC0FD000
7E6F8000
1FFE0000
01940000
ENDCHAR
STARTCHAR g
ENCODING 103
SWIDTH 606 0
DWIDTH 15 0
BBX 16 27 0 -12
BITMAP
000006F8
00000FFE
00002EFE
00BFFCFD
07FAFE64
1FD02F80
3F801FD0
7F400BE0
7F000BF0
7F400BF0
3F400FE0
2F801FD0
0FE07F80
03FFFE00
0BFBA000
2FE40000
1FFFF900
0BFFFFD0
1FF56FF4
7F8007FC
BF0002FD
FE0001FD
FE0001FD
BF4002FC
3FD01BF4
0BFFFFD0
01AFE900
ENDCHAR
STARTCHAR h
ENCODING 104
SWIDTH 678 0
DWIDTH 16 0
BBX 21 23 -3 -2
BITMAP
000150000000
5ABFF0000000
1BFFE0000000
006FE0000000
002FE0000000
002FE0000000
001FE0000000
001FE0000000
001FE0000000
001FE0000000
001FD0000000
001FEAA40000
001FFFFF8000
001FE56FF000
000FD00BF400
000FD003F800
000FD003F800
000FC003F400
000FC003F400
002FE003F000
01FFFD07F000
0140002FFD00
00000056AA80
ENDCHAR
STARTCHAR i
ENCODING 105
SWIDTH 393 0
DWIDTH 9 0
BBX 10 19 0 0
BITMAP
00B800
02FE00
03FF00
02FE00
00B800
000000
555500
2FFE00
02FE00
01FE00
01FE00
00FD00
00FD00
00FD00
00FD00
00FD00
01FD00
0BFF40
6FFFE0
ENDCHAR
STARTCHAR j
ENCODING 106
SWIDTH 385 0
DWIDTH 9 0
BBX 11 26 -2 -8
BITMAP
002800
00FF00
01FF40
01FF40
00BE00
001400
001580
1BFFD0
01BFD0
001FD0
001FD0
000FE0
000FE0
000FE0
000BF0
000BF0
000BF0
0007F4
0007F4
0007F4
2903F4
BF03F4
BF03F0
7E07E0
2FAFD0
07FE40
ENDCHAR
STARTCHAR k
ENCODING 107
SWIDTH 749 0
DWIDTH 18 0
BBX 23 23 -3 -3
BITMAP
000050000000
6BFFF0000000
017FF0000000
002FF0000000
001FF1555554
001FF0BFFFD0
001FF00BF900
001FF00FD000
001FF07E0000
000FE1F80000
000FEBF00000
000FFFF80000
000FFEFD0000
000FF0BF0000
000BE03F4000
000BE01FC000
000BE00BE000
000BE003F400
002FF901FC00
02FFFF90FFA4
05000002FFA4
0000001F9400
000000100000
ENDCHAR
STARTCHAR l
ENCODING 108
SWIDTH 369 0
DWIDTH 9 0
BBX 12 23 -2 -2
BITMAP
6AAA80
1BFFC0
00BFC0
007FC0
007FC0
007FC0
007F80
003F80
003F80
003F80
003F80
003F80
003F80
003F80
003F80
002F40
002F40
002F40
002F40
002F40
007F80
02FFF8
0AAAA5
ENDCHAR
STARTCHAR m
ENCODING 109
SWIDTH 990 0
DWIDTH 24 0
BBX 27 12 -2 1
BITMAP
016BC6A4059000
7FFFFFFE7FFD00
06FFFFFFFFFF00
003FD07FE47F40
003F802FC03F40
003F401F802F80
002F401F802F40
002F401F402F40
002F401F403F40
02FFE41F42FFE0
055545BFD05554
00000655540000
ENDCHAR
STARTCHAR n
ENCODING 110
SWIDTH 643 0
DWIDTH 15 0
BBX 19 12 -2 1
BITMAP
016BC6A400
7FFFFFFE00
06FFFFFF40
003FD07F80
003F802FC0
003F401F80
002F401F80
002F401F80
002F401F40
02FFE41F40
055545BFD0
0000065554
ENDCHAR
STARTCHAR o
ENCODING 111
SWIDTH 705 0
DWIDTH 17 0
BBX 17 13 0 -1
BITMAP
0005540000
01FFFF9000
0FFE6BF800
3FE001FE00
7F8000BF40
BF40007F80
BF00007F80
BF40007F80
7F8000BF00
2FE002FD00
07FEBFF400
00BFFE4000
0000400000
ENDCHAR
STARTCHAR p
ENCODING 112
SWIDTH 723 0
DWIDTH 17 0
BBX 20 20 -3 -6
BITMAP
0000500000
5ABFE00000
06FFE5A500
002FFFFFD0
001FF96FF8
001FE002FE
000FE000BF
000FE0007F
000FE000BF
000FE000FF
000FE002FD
000FFEAFF8
000BFFFFD0
000BE15500
000BE00000
000BE00000
000BE00000
000BF40000
00BFFF8000
06AAA95000
ENDCHAR
STARTCHAR q
ENCODING 113
SWIDTH 682 0
DWIDTH 16 0
BBX 19 20 0 -6
BITMAP
000005AAA4
000007FFD0
01BFEBFD00
0BFFFFF800
2FE00BF800
7F4007F800
BF0007F400
BF0007F400
BF0007F400
7F8007F400
2FE55FF400
0BFFFFF000
01BFABF000
000007F000
000007F000
000007F000
00000BF000
00006FF900
0006FFFF90
0000000154
ENDCHAR
STARTCHAR r
ENCODING 114
SWIDTH 595 0
DWIDTH 14 0
BBX 16 16 -1 -1
BITMAP
00004000
016F86A8
AFFFAFFE
1AFFFFFF
007FE1FE
007F8068
007F8000
003F8000
003F8000
003F4000
002F4000
002F4000
007FE400
02FFFF90
1FEA5500
10000000
ENDCHAR
STARTCHAR s
ENCODING 115
SWIDTH 533 0
DWIDTH 13 0
BBX 13 15 0 -1
BITMAP
06FE4200
1FFFF700
3F41BF00
7E002F00
7F800B00
7FF90200
1FFFE400
07FFFD00
206FFF40
3401FF80
3D003F80
7F907F40
7BFFFE00
61AFA400
40000000
ENDCHAR
STARTCHAR t
ENCODING 116
SWIDTH 422 0
DWIDTH 10 0
BBX 12 23 -1 -1
BITMAP
000900
001E00
002E00
003E00
007D00
02FD00
2FFE54
7FFFFE
17FEBE
02FC00
03FC00
03F800
03F800
03F800
07F400
07F400
07F404
07F408
07F40C
07F87C
03FFF8
01FFE0
006A40
ENDCHAR
STARTCHAR u
ENCODING 117
SWIDTH 614 0
DWIDTH 15 0
BBX 18 13 -2 -1
BITMAP
6AA9155540
1BFD0BFF40
02FD00BF40
01FC007F00
01FC007F00
02FC00BE00
02FC00BE00
01FC00BD00
01FC00BD00
00FE02FC00
007FFFFD00
001FFEBFE0
000050BA40
ENDCHAR
STARTCHAR v
ENCODING 118
SWIDTH 639 0
DWIDTH 15 0
BBX 21 15 -3 -2
BITMAP
0016B8000000
6BFFD5400000
06FF41FFEA40
007F802FF900
002FD00F8000
001FE01F0000
000BF43D0000
0003F8BC0000
0002FDF40000
0000FFF00000
00007FD00000
00002FC00000
00001F400000
00000B000000
000001000000
ENDCHAR
STARTCHAR w
ENCODING 119
SWIDTH 805 0
DWIDTH 19 0
BBX 26 14 -3 0
BITMAP
00005500000000
6FFFE4107FEA90
06FF403407F900
007F807807C000
003FD0FC0B8000
002FE1FE1F4000
000FF2FF2E0000
000BFBFFBD0000
0003FF6FFC0000
0002FF1FF40000
0000FE0BF00000
0000BC07D00000
00003803C00000
00002401800000
ENDCHAR
STARTCHAR x
ENCODING 120
SWIDTH 717 0
DWIDTH 17 0
BBX 21 15 -2 -1
BITMAP
000005000000
056BF8000000
6BFF856AAA40
007FD1BFF400
001FF47F4000
000BFDF80000
0002FFE00000
0000BF800000
0000BFD00000
0002FFF40000
000BE7FC0000
01BF81FE0000
1AFFF47F9000
000015BFFF80
000006A95000
ENDCHAR
STARTCHAR y
ENCODING 121
SWIDTH 655 0
DWIDTH 16 0
BBX 16 24 -1 -11
BITMAP
90000000
3E40AA54
0FF91FFF
07FD02FF
07FC00FF
0BF800FF
0FF400FE
0FF001FE
0FF401FE
0FF801FE
07FFEFFE
01FFFFFE
001651FE
000001FE
000001FD
000001FD
000002FD
078002FD
0FE003FC
0FE007F8
0BC00BF4
07F56FD0
01FFFF40
001AA400
ENDCHAR
STARTCHAR z
ENCODING 122
SWIDTH 549 0
DWIDTH 13 0
BBX 14 14 0 -1
BITMAP
15555590
BFFFFFD0
7FAAFF80
3C02FF00
3C07FD00
281FF400
243FE040
10BFC180
02FF4280
07FD0380
0FF80B80
3FFFFF80
6AFFFF80
00001540
ENDCHAR
STARTCHAR braceleft
ENCODING 123
SWIDTH 708 0
DWIDTH 17 0
BBX 13 23 2 -3
BITMAP
00AAAA40
00FFFD00
00FF9000
00FF0000
00FE0000
00FE0000
00FE0000
00FE0000
00FE0000
00FE0000
01FE0000
6FFE0000
1BFE0000
00BE0000
00BE0000
00BE0000
00BE0000
00BE0000
00BE0000
00BE0000
00BE4000
007FE400
007FFE00
ENDCHAR
STARTCHAR bar
ENCODING 124
SWIDTH 304 0
DWIDTH 7 0
BBX 5 22 1 -2
BITMAP
7F80
7F80
7F80
7F80
7F80
7F80
7F80
7F80
7F80
7F80
7F40
7F40
3F40
3F40
3F40
3F40
3F40
3F40
3F40
3F40
3F40
2A40
ENDCHAR
STARTCHAR braceright
ENCODING 125
SWIDTH 517 0
DWIDTH 12 0
BBX 13 23 0 -3
BITMAP
6AAA8000
1FFFC000
01BFC000
002FC000
002FC000
002FC000
002FC000
002FC000
002FC000
002FC000
002FD000
002FFE40
002FF900
002F8000
002F8000
002F8000
002F8000
001F8000
001F8000
001F8000
002F8000
02FF8000
1FFF4000
ENDCHAR
STARTCHAR asciitilde
ENCODING 126
SWIDTH 466 0
DWIDTH 11 0
BBX 12 5 0 5
BITMAP
1A9009
FFFEBD
FFFFFD
FABFFD
800690
ENDCHAR
STARTCHAR uni00A0
ENCODING 160
SWIDTH 320 0
DWIDTH 8 0
BBX 1 1 0 0
BITMAP
00
ENDCHAR
STARTCHAR exclamdown
ENCODING 161
SWIDTH 305 0
DWIDTH 7 0
BBX 8 21 0 -8
BITMAP
02F8
07FD
03FC
00A4
0150
03F0
07F0
07E0
0BE0
0BE0
0FE0
1FE0
1FE0
2FE0
2FD0
3FD0
3FD0
7FD0
7FD0
BFD0
1540
ENDCHAR
STARTCHAR cent
ENCODING 162
SWIDTH 417 0
DWIDTH 10 0
BBX 11 20 -1 -3
BITMAP
003F00
003F00
003F00
007F40
02FFE0
0BD1F8
1F40FC
3F00B8
3E0000
7E0000
3F0000
3F4004
2F8028
0BFAF4
02FFD0
003F00
003F00
003F00
003F00
001500
ENDCHAR
STARTCHAR sterling
ENCODING 163
SWIDTH 658 0
DWIDTH 16 0
BBX 16 18 0 -1
BITMAP
00000001
0006A809
007FFF6D
01FFAFFC
03FC02FC
07F400BC
5BF40038
FFFFFD28
FFFFFD04
55FD5404
00BD5401
FFFFFD02
FFFFFD07
05FD580E
01F8001E
03FFFFFE
0BFFFFFE
0AAAAFFE
ENDCHAR
STARTCHAR currency
ENCODING 164
SWIDTH 358 0
DWIDTH 9 0
BBX 9 9 0 4
BITMAP
240900
BEEF00
7FFF40
2E6D00
2D1E00
2FBD00
7FFF00
B95F40
100000
ENDCHAR
STARTCHAR yen
ENCODING 165
SWIDTH 796 0
DWIDTH 19 0
BBX 22 16 -3 0
BITMAP
0056A4000000
6FFF80155540
01BF800BFF90
001FE001F900
0007F803D000
0001FD1F4000
00007FBD0000
00001FF40000
00025BE50000
0003FFFF8000
00015BE50000
0003FFFF8000
00016BFA4000
00000BE00000
00006FFE4000
0006AAAAA400
ENDCHAR
STARTCHAR brokenbar
ENCODING 166
SWIDTH 304 0
DWIDTH 7 0
BBX 5 22 1 -2
BITMAP
7F80
7F80
7F80
7F80
7F80
7F80
7F80
7F80
1500
0000
0000
0000
1500
3F40
3F40
3F40
3F40
3F40
3F40
3F40
3F40
2A40
ENDCHAR
STARTCHAR section
ENCODING 167
SWIDTH 646 0
DWIDTH 16 0
BBX 14 27 1 -6
BITMAP
02FE4040
1FFFE080
7F41FE80
BD002F80
FD000B80
FF000240
BFD00040
7FFE4000
2FFFE400
0FFFFE00
2FFFFF80
BE06FFD0
FD007FE0
FD001FE0
FF800FD0
BFF96FC0
3FFFFF00
0FFFFD00
02FFFF40
001FFFC0
5001BFD0
74002FE0
BD000FD0
BF401FD0
BFFABF80
92FFFD00
80154000
ENDCHAR
STARTCHAR dieresis
ENCODING 168
SWIDTH 708 0
DWIDTH 17 0
BBX 7 4 5 19
BITMAP
6464
F8BC
B8BC
1010
ENDCHAR
STARTCHAR copyright
ENCODING 169
SWIDTH 700 0
DWIDTH 17 0
BBX 17 16 0 1
BITMAP
0000400000
006FFE4000
07FFAFE000
1FE001FC00
3F46F47E00
BD1E6D1F40
B83C1E0F80
F878050B80
F4B8000B80
F878010F80
BC3D060F40
7D1FFC2F00
2F46907D00
0BE006F800
02FFFFD000
002BE90000
ENDCHAR
STARTCHAR ordfeminine
ENCODING 170
SWIDTH 399 0
DWIDTH 10 0
BBX 11 10 -1 9
BITMAP
06FA00
1FAF80
2F4BD0
1E07D0
0AABD0
2FAFD0
7F0BC0
3FAFC0
0BFFE0
000AA4
ENDCHAR
STARTCHAR guillemotleft
ENCODING 171
SWIDTH 424 0
DWIDTH 10 0
BBX 10 13 0 -1
BITMAP
008050
02D0E0
07C2E0
0F87D0
2F4F80
7E2F40
BD3F00
7F2F40
2F4FC0
0B87D0
03D1E0
01C0A0
004010
ENDCHAR
STARTCHAR logicalnot
ENCODING 172
SWIDTH 541 0
DWIDTH 13 0
BBX 14 13 0 1
BITMAP
40000000
40000040
50000180
B5500380
BFFFFF40
BFFFFF40
BFFFFF40
A0001F40
90000F40
40000B00
00000B40
00006FD0
00000550
ENDCHAR
STARTCHAR sfthyphen
ENCODING 173
SWIDTH 530 0
DWIDTH 13 0
BBX 13 5 0 6
BITMAP
55500000
FFFFFF80
FFFFFF80
FFFFFF80
AAAA9540
ENDCHAR
STARTCHAR registered
ENCODING 174
SWIDTH 700 0
DWIDTH 17 0
BBX 17 15 0 1
BITMAP
006BFA0000
06FFFFE000
1FE406F800
3F40007E00
7D5BDF6F40
B81BFFCF80
F807C24B80
F407800B80
F803800B80
B803800F80
7D07E41F00
2F19547E00
0FD002F800
02FEBFE000
006FFA0000
ENDCHAR
STARTCHAR macron
ENCODING 175
SWIDTH 705 0
DWIDTH 17 0
BBX 7 4 6 17
BITMAP
6AA4
FFF8
FFF8
AAA4
ENDCHAR
STARTCHAR degree
ENCODING 176
SWIDTH 364 0
DWIDTH 9 0
BBX 7 6 1 11
BITMAP
1FD0
7FF0
B4B4
B4B4
7FF0
1FD0
ENDCHAR
STARTCHAR plusminus
ENCODING 177
SWIDTH 607 0
DWIDTH 15 0
BBX 14 15 0 0
BITMAP
002FD000
002FC000
002FC000
7FFFEA90
7FFFFFF0
7FFFFFF0
6ABFEA90
001FC000
001F8000
001F8000
00054000
7FFFAA90
7FFFFFF0
7FFFFFE0
6AAAAA50
ENDCHAR
STARTCHAR twosuperior
ENCODING 178
SWIDTH 440 0
DWIDTH 11 0
BBX 11 13 0 9
BITMAP
100000
35FE40
3FFFD0
2F47F0
2D02F4
2803F0
140FE0
10BF94
07F930
2FD0B0
7F96F0
BFFFF0
BFFFE0
ENDCHAR
STARTCHAR threesuperior
ENCODING 179
SWIDTH 442 0
DWIDTH 11 0
BBX 11 14 0 7
BITMAP
505400
37FF40
3FEFD0
2E07F0
2803F0
145BE0
01FFD0
11BFF0
2407F4
2C03F4
3F9BF0
7BFFC0
51A900
400000
ENDCHAR
STARTCHAR acute
ENCODING 180
SWIDTH 694 0
DWIDTH 17 0
BBX 5 5 7 18
BITMAP
2E00
3F40
7E00
BD00
B800
ENDCHAR
STARTCHAR mu
ENCODING 181
SWIDTH 1000 0
DWIDTH 24 0
BBX 19 19 0 -7
BITMAP
6AA9155540
0BFD0BFF80
01FD00BF40
01FD007F40
01FC007F00
01FC007F00
01FC007E00
01FC007E00
01FD00BD00
01FE01FD00
00FFFFFD00
00FFFEBFE4
00FC50BA50
00FC000000
00FC000000
00FC000000
00FC000000
00FC000000
0014000000
ENDCHAR
STARTCHAR paragraph
ENCODING 182
SWIDTH 782 0
DWIDTH 19 0
BBX 21 17 -1 -1
BITMAP
0005AAAAAA40
02FFFFFFE400
1FFEFEBE0000
7F90BC7D0000
7F00BC7D0000
7F40BC7D0000
1FE4BC7D0000
02FFFFFD0000
001AFFFD0000
0000BC7D0000
0000BC7D0000
0000B87D0000
0000B8BD0000
0000F9FD0000
0000FFFF9000
001BFFFFF800
01AAAA555400
ENDCHAR
STARTCHAR periodcentered
ENCODING 183
SWIDTH 226 0
DWIDTH 5 0
BBX 5 4 0 7
BITMAP
2F40
BFC0
BFC0
2F40
ENDCHAR
STARTCHAR cedilla
ENCODING 184
SWIDTH 780 0
DWIDTH 19 0
BBX 5 8 7 -5
BITMAP
2C00
7800
FF40
5BC0
03C0
EBC0
BF40
1500
ENDCHAR
STARTCHAR onesuperior
ENCODING 185
SWIDTH 390 0
DWIDTH 9 0
BBX 9 13 0 8
BITMAP
005800
5BFC00
5BFC00
01FC00
00FC00
00FC00
00FC00
00FC00
00FC00
00FC00
00FC00
07FE00
1AAA40
ENDCHAR
STARTCHAR ordmasculine
ENCODING 186
SWIDTH 449 0
DWIDTH 11 0
BBX 12 9 -1 10
BITMAP
005500
07FFE4
2FD6FD
7F007E
7E003F
7E003F
3F40BD
1FFBF8
01AE90
ENDCHAR
STARTCHAR guillemotright
ENCODING 187
SWIDTH 415 0
DWIDTH 10 0
BBX 10 13 0 -1
BITMAP
501000
B03800
783D00
3E1F40
2F4FC0
0FCBE0
0FD7F0
1F8BD0
2F0F80
3D2F00
B83D00
B03800
101000
ENDCHAR
STARTCHAR onequarter
ENCODING 188
SWIDTH 918 0
DWIDTH 22 0
BBX 22 24 0 -3
BITMAP
005800003400
5BFC0000BE00
5BFC0001FD00
01FC0002F800
00FC0007F400
00FC000FE000
00FC002FC000
00FC007F4000
00FC00BE0000
00FC01FC0500
00FC03F40D00
07FE0BE02D00
1AAA4FD0BD00
00002F82FD00
00007F07FC00
0000FD1FFC80
0001F83EBDC0
0003F0FDFEC0
000BD2FFFFC0
001F8555BEC0
002F4000BC80
007E0001FD00
00FC006FFF90
007400000000
ENDCHAR
STARTCHAR onehalf
ENCODING 189
SWIDTH 1007 0
DWIDTH 24 0
BBX 24 25 0 -4
BITMAP
005800003400
5BFC0000BE00
5BFC0001FD00
01FC0002F800
00FC0007F400
00FC000FE000
00FC002FC000
00FC007F4000
00FC00BE0000
00FC01FC0000
00FC03F40000
07FE0BE00000
1AAA4FD61B90
00002F87FFF8
00007F03F5BE
0000FD03C03E
0001F803407E
0003F00201FD
000BD0010BF9
001F80007F96
002F4002F90E
007E000BF56E
00FC000FFFFE
0074001FFFFD
000000000554
ENDCHAR
STARTCHAR threequarters
ENCODING 190
SWIDTH 936 0
DWIDTH 22 0
BBX 22 24 0 -3
BITMAP
505400002800
37FF40007F40
3FEFD000BE00
2E07F001FD00
2803F003F800
145BE00BF000
01FFD00FD000
11BFF02F8000
2407F47F0000
2C03F4FD0100
3F9BF1F80A00
7BFFC3F41E00
51A90BE07E00
40001FC0FE00
00002F43FE00
00007E0BFE20
0000FC2FBEA0
0002F47EBED0
0007F1FFFFD0
000BD155BED0
001F80007D50
003F0001BE00
00BD001BFFE0
006800000000
ENDCHAR
STARTCHAR questiondown
ENCODING 191
SWIDTH 568 0
DWIDTH 14 0
BBX 15 22 -1 -8
BITMAP
00000A90
00002FF4
00002FF4
00000BE0
00000000
00002900
00007F00
0000BF00
0015FE00
02FFFE00
0FFFBE00
2FF40000
3FD00000
7F800000
3F800004
3FC00018
2FE00034
0BF901F0
02FFFFF0
001AEAE0
00000090
00000010
ENDCHAR
STARTCHAR Agrave
ENCODING 192
SWIDTH 788 0
DWIDTH 19 0
BBX 26 30 -3 -6
BITMAP
00000640000000
00002F80000000
00001FC0000000
00000BD0000000
000007E0000000
00000290000000
00000000000000
00000000000000
001FFAA0000000
0001FFF4000000
00001FF8000000
000007FD000000
00000BFE000000
00001FFF000000
00003DBF800000
00007C7FC00000
0000F42FE00000
0001E01FF00000
0003FFAFF80000
0007FFFFFC0000
000FA557FE0000
002E0002FF0000
007D0000FF8000
07FE0000BFC000
BFFFD0007FE000
0556A4002FFE40
000000003FFFE0
00000000FFE400
00000003E40000
00000004000000
ENDCHAR
STARTCHAR Aacute
ENCODING 193
SWIDTH 788 0
DWIDTH 19 0
BBX 26 30 -3 -6
BITMAP
00000040000000
000000F4000000
000001FC000000
000002F4000000
000003F0000000
000002D0000000
00000040000000
00000000000000
001FFAA0000000
0001FFF4000000
00001FF8000000
000007FD000000
00000BFE000000
00001FFF000000
00003DBF800000
00007C7FC00000
0000F42FE00000
0001E01FF00000
0003FFAFF80000
0007FFFFFC0000
000FA557FE0000
002E0002FF0000
007D0000FF8000
07FE0000BFC000
BFFFD0007FE000
0556A4002FFE40
000000003FFFE0
00000000FFE400
00000003E40000
00000004000000
ENDCHAR
STARTCHAR Acircumflex
ENCODING 194
SWIDTH 788 0
DWIDTH 19 0
BBX 26 29 -3 -6
BITMAP
000001D0000000
000007F4000000
00000FFC000000
00002FBE000000
00007D1B800000
00001001000000
00000000000000
001FFAA0000000
0001FFF4000000
00001FF8000000
000007FD000000
00000BFE000000
00001FFF000000
00003DBF800000
00007C7FC00000
0000F42FE00000
0001E01FF00000
0003FFAFF80000
0007FFFFFC0000
000FA557FE0000
002E0002FF0000
007D0000FF8000
07FE0000BFC000
BFFFD0007FE000
0556A4002FFE40
000000003FFFE0
00000000FFE400
00000003E40000
00000004000000
ENDCHAR
STARTCHAR Atilde
ENCODING 195
SWIDTH 788 0
DWIDTH 19 0
BBX 26 28 -3 -6
BITMAP
00002F92400000
00003FFF400000
00003FFF400000
00002069000000
00000000000000
00000000000000
001FFAA0000000
0001FFF4000000
00001FF8000000
000007FD000000
00000BFE000000
00001FFF000000
00003DBF800000
00007C7FC00000
0000F42FE00000
0001E01FF00000
0003FFAFF80000
0007FFFFFC0000
000FA557FE0000
002E0002FF0000
007D0000FF8000
07FE0000BFC000
BFFFD0007FE000
0556A4002FFE40
000000003FFFE0
00000000FFE400
00000003E40000
00000004000000
ENDCHAR
STARTCHAR Adieresis
ENCODING 196
SWIDTH 788 0
DWIDTH 19 0
BBX 26 27 -3 -6
BITMAP
00001919000000
00003E2F000000
00003E2E000000
00000404000000
00000000000000
001FFAA0000000
0001FFF4000000
00001FF8000000
000007FD000000
00000BFE000000
00001FFF000000
00003DBF800000
00007C7FC00000
0000F42FE00000
0001E01FF00000
0003FFAFF80000
0007FFFFFC0000
000FA557FE0000
002E0002FF0000
007D0000FF8000
07FE0000BFC000
BFFFD0007FE000
0556A4002FFE40
000000003FFFE0
00000000FFE400
00000003E40000
00000004000000
ENDCHAR
STARTCHAR Aring
ENCODING 197
SWIDTH 788 0
DWIDTH 19 0
BBX 26 27 -3 -6
BITMAP
00000040000000
000007F4000000
00000B6C000000
00000E2C000000
000007F8000000
001FFBF0000000
0001FFF4000000
00001FF8000000
000007FC000000
00000BFE000000
00001FFF000000
00003DBF800000
00007C7FC00000
0000F42FE00000
0001E01FF00000
0003FFAFF80000
0007FFFFFC0000
000FA557FE0000
002E0002FF0000
007D0000FF8000
07FE0000BFC000
BFFFD0007FE000
0556A4002FFE40
000000003FFFE0
00000000FFE400
00000003E40000
00000004000000
ENDCHAR
STARTCHAR AE
ENCODING 198
SWIDTH 1019 0
DWIDTH 24 0
BBX 30 20 -6 -2
BITMAP
0000000000000550
000055AAABFFFFD0
00006FFFFFFFFFD0
000007FFFF9403D0
000000BFFF4002D0
0000007DFF4041D0
000000F8FF4180D0
000002F0FF428050
000007D0FF438000
00000F80BF9B8000
00002F00BFFF8040
00007D00BFFF8080
0000BFFFFF4B80C0
0001FFFFFF4381C0
0003D555BF4142C0
000B8000BF4043C0
002F0001FF9AABC0
06FF806FFFFFFFC0
6FFFF5AAA9555540
0005540000000000
ENDCHAR
STARTCHAR Ccedilla
ENCODING 199
SWIDTH 766 0
DWIDTH 18 0
BBX 18 27 0 -9
BITMAP
0000000010
0001550030
002FFFE4A0
01FFFFFEE0
07FF917FD0
1FF8000BD0
2FF00003C0
3FE00001C0
7FD0000080
7FC0000000
7FC0000000
7FC0000000
7FD0000040
3FE0000080
1FF40001C0
0BFD0007C0
03FF906FD0
00BFFFFE90
001BFFE420
0000E50010
0002E00000
0007FD0000
00016E0000
00010F0000
0007BE0000
0003FC0000
0000500000
ENDCHAR
STARTCHAR Egrave
ENCODING 200
SWIDTH 781 0
DWIDTH 19 0
BBX 20 26 -2 -1
BITMAP
0000060000
00007F4000
00003F8000
00001FC000
00000BD000
0000074000
0000000000
0000000015
0055AABFFE
6FFFFFFFFE
01BFF5403E
001FF0002E
001FF0041E
001FF0180A
001FF03805
001FF07801
001FF5F800
000FFFF404
000FFFF408
000FE0B40C
000FE0741C
000FE0242C
000FE0043C
001FF5AABC
06FFFFFFFC
1AAA955554
ENDCHAR
STARTCHAR Eacute
ENCODING 201
SWIDTH 781 0
DWIDTH 19 0
BBX 20 24 -2 -1
BITMAP
000002E400
000003F400
000007F000
00000BD000
000007C000
0000000015
0055AABFFE
6FFFFFFFFE
01BFF5403E
001FF0002E
001FF0041E
001FF0180A
001FF03805
001FF07801
001FF5F800
000FFFF404
000FFFF408
000FE0B40C
000FE0741C
000FE0242C
000FE0043C
001FF5AABC
06FFFFFFFC
1AAA955554
ENDCHAR
STARTCHAR Ecircumflex
ENCODING 202
SWIDTH 781 0
DWIDTH 19 0
BBX 20 25 -2 -1
BITMAP
00000B0000
00002F8000
00007FE000
0001FFF400
0003E0BC00
0001400400
0000000015
0055AABFFE
6FFFFFFFFE
01BFF5403E
001FF0002E
001FF0041E
001FF0180A
001FF03805
001FF07801
001FF5F800
000FFFF404
000FFFF408
000FE0B40C
000FE0741C
000FE0242C
000FE0043C
001FF5AABC
06FFFFFFFC
1AAA955554
ENDCHAR
STARTCHAR Edieresis
ENCODING 203
SWIDTH 781 0
DWIDTH 19 0
BBX 20 23 -2 -1
BITMAP
0000646400
0000F8BC00
0000F8B800
0000101000
0000000015
0055AABFFE
6FFFFFFFFE
01BFF5403E
001FF0002E
001FF0041E
001FF0180A
001FF03805
001FF07801
001FF5F800
000FFFF404
000FFFF408
000FE0B40C
000FE0741C
000FE0242C
000FE0043C
001FF5AABC
06FFFFFFFC
1AAA955554
ENDCHAR
STARTCHAR Igrave
ENCODING 204
SWIDTH 445 0
DWIDTH 11 0
BBX 14 27 -2 -2
BITMAP
00060000
007F0000
003F4000
001F8000
000FC000
00074000
00000000
00000000
6A555550
0BFFFF90
007FF400
002FE000
001FE000
001FE000
001FE000
001FE000
001FE000
001FE000
001FE000
001FE000
000FE000
000FE000
000FE000
000FD000
000FD000
006FF800
0BFFFF90
ENDCHAR
STARTCHAR Iacute
ENCODING 205
SWIDTH 445 0
DWIDTH 11 0
BBX 14 26 -2 -2
BITMAP
00004000
0001E400
0002F800
0003F000
0007E000
0007C000
00004000
6A555550
0BFFFF90
007FF400
002FE000
001FE000
001FE000
001FE000
001FE000
001FE000
001FE000
001FE000
001FE000
000FE000
000FE000
000FE000
000FD000
000FD000
006FF800
0BFFFF90
ENDCHAR
STARTCHAR Icircumflex
ENCODING 206
SWIDTH 445 0
DWIDTH 11 0
BBX 14 26 -2 -2
BITMAP
00078000
000FD000
002FF400
00BEFC00
01F42E00
00400400
00000000
6A555550
0BFFFF90
007FF400
002FE000
001FE000
001FE000
001FE000
001FE000
001FE000
001FE000
001FE000
001FE000
000FE000
000FE000
000FE000
000FD000
000FD000
006FF800
0BFFFF90
ENDCHAR
STARTCHAR Idieresis
ENCODING 207
SWIDTH 445 0
DWIDTH 11 0
BBX 14 24 -2 -2
BITMAP
00642400
00FCBD00
00B87C00
00101000
00000000
6A555550
0BFFFF90
007FF400
002FE000
001FE000
001FE000
001FE000
001FE000
001FE000
001FE000
001FE000
001FE000
000FE000
000FE000
000FE000
000FD000
000FD000
006FF800
0BFFFF90
ENDCHAR
STARTCHAR Eth
ENCODING 208
SWIDTH 1000 0
DWIDTH 24 0
BBX 22 17 1 -1
BITMAP
BFFFFFFE4000
06FFFFFFF400
006FF95BFE00
001FF400BF80
000FF4003FD0
000FF4002FE0
000FF4001FF0
2FFFFEA00FF0
2FFFFFF00FF0
2FFFFAA01FF0
000BF0001FE0
000BF0002FD0
000BF0007FC0
000BF001FF40
001FFFFFFD00
01FFFFFF9000
0AA955500000
ENDCHAR
STARTCHAR Ntilde
ENCODING 209
SWIDTH 840 0
DWIDTH 20 0
BBX 24 24 -2 -1
BITMAP
00006E460000
00007FFE0000
00007FFE0000
000050690000
000000000000
000001555555
6FFFF06FFFF8
02FFF806FF80
002FFE002E00
001FFF402E00
001FFFD02E00
001FBFF02E00
001F2FFC2E00
001F0FFE2E00
001F03FF6E00
001F01FFFE00
001F007FFD00
001F001FFD00
001F400BFD00
001F4002FD00
006F9000FD00
07FFFE403D00
6AFFFFE41D00
000000000500
ENDCHAR
STARTCHAR Ograve
ENCODING 210
SWIDTH 808 0
DWIDTH 19 0
BBX 19 24 0 -1
BITMAP
0000180000
0001FC0000
0000FD0000
00007E0000
00003F4000
00001D0000
0000000000
0000000000
0006AA9000
00BFFFFD00
07FFAAFF80
1FFD007FE0
2FF0001FF4
7FD0000FF8
7FC0000BF8
BFC0000BFC
7FC0000BFC
7FD0000BF8
3FE0001FF4
1FF4002FE0
0BFD01FF80
01FFFFFE00
002FFFE400
0000540000
ENDCHAR
STARTCHAR Oacute
ENCODING 211
SWIDTH 808 0
DWIDTH 19 0
BBX 19 24 0 -1
BITMAP
0000040000
00001E4000
00002F8000
00003F4000
00007E0000
00007C0000
0000040000
0000000000
0006AA9000
00BFFFFD00
07FFAAFF80
1FFD007FE0
2FF0001FF4
7FD0000FF8
7FC0000BF8
BFC0000BFC
7FC0000BFC
7FD0000BF8
3FE0001FF4
1FF4002FE0
0BFD01FF80
01FFFFFE00
002FFFE400
0000540000
ENDCHAR
STARTCHAR Ocircumflex
ENCODING 212
SWIDTH 808 0
DWIDTH 19 0
BBX 19 23 0 -1
BITMAP
0000380000
0000FD0000
0002FF4000
0007EFC000
001F42E000
0004005000
0000000000
0006AA9000
00BFFFFD00
07FFAAFF80
1FFD007FE0
2FF0001FF4
7FD0000FF8
7FC0000BF8
BFC0000BFC
7FC0000BFC
7FD0000BF8
3FE0001FF4
1FF4002FE0
0BFD01FF80
01FFFFFE00
002FFFE400
0000540000
ENDCHAR
STARTCHAR Otilde
ENCODING 213
SWIDTH 808 0
DWIDTH 19 0
BBX 19 22 0 -1
BITMAP
0006E46000
0007FFE000
0007FFE000
0005069000
0000000000
0000000000
0006AA9000
00BFFFFD00
07FFAAFF80
1FFD007FE0
2FF0001FF4
7FD0000FF8
7FC0000BF8
BFC0000BFC
7FC0000BFC
7FD0000BF8
3FE0001FF4
1FF4002FE0
0BFD01FF80
01FFFFFE00
002FFFE400
0000540000
ENDCHAR
STARTCHAR Odieresis
ENCODING 214
SWIDTH 808 0
DWIDTH 19 0
BBX 19 21 0 -1
BITMAP
0006424000
000BCBD000
000B87C000
0001010000
0000000000
0006AA9000
00BFFFFD00
07FFAAFF80
1FFD007FE0
2FF0001FF4
7FD0000FF8
7FC0000BF8
BFC0000BFC
7FC0000BFC
7FD0000BF8
3FE0001FF4
1FF4002FE0
0BFD01FF80
01FFFFFE00
002FFFE400
0000540000
ENDCHAR
STARTCHAR multiply
ENCODING 215
SWIDTH 556 0
DWIDTH 13 0
BBX 13 13 0 2
BITMAP
01000400
0F402D00
7FD0BF40
7FF6FFC0
1FFFFF00
07FFF800
01FFE000
01FFE000
07FFF800
1FFBFE00
7FD0FF80
7F402F40
1D000900
ENDCHAR
STARTCHAR Oslash
ENCODING 216
SWIDTH 808 0
DWIDTH 19 0
BBX 19 20 0 -3
BITMAP
0000003D00
0000007F80
0006AAFF40
00BFFFFE00
07FFABFF80
1FFD0BFFE0
2FF01FFFF4
7FD02FDFF8
7FC07F4BF8
BFC0BE0BFC
7FC1FD0BFC
7FD3F80BF8
3FE7F00FF4
1FFFD02FE0
0BFF81FF80
01FFFFFE00
00BFFFE400
01F8540000
02F4000000
0050000000
ENDCHAR
STARTCHAR Ugrave
ENCODING 217
SWIDTH 725 0
DWIDTH 17 0
BBX 21 24 -2 -1
BITMAP
00000A000000
00007F000000
00003F400000
00002F800000
00000FC00000
00000A400000
000000000000
5500006AAA40
1BFFE80BFD00
01FF9002F000
00FF4002F000
00FF4001F000
00FF4001F000
00FF4001F000
00FF4001F000
00FF4001F000
01FF4001E000
00FF4001E000
00FF4001E000
00BFC003D000
007FE00BC000
002FFEBF4000
000BFFFD0000
00006A500000
ENDCHAR
STARTCHAR Uacute
ENCODING 218
SWIDTH 725 0
DWIDTH 17 0
BBX 21 24 -2 -1
BITMAP
00000B900000
00000FE00000
00001FC00000
00002F400000
00001F000000
000000000000
000000000000
5500006AAA40
1BFFE80BFD00
01FF9002F000
00FF4002F000
00FF4001F000
00FF4001F000
00FF4001F000
00FF4001F000
00FF4001F000
01FF4001E000
00FF4001E000
00FF4001E000
00BFC003D000
007FE00BC000
002FFEBF4000
000BFFFD0000
00006A500000
ENDCHAR
STARTCHAR Ucircumflex
ENCODING 219
SWIDTH 725 0
DWIDTH 17 0
BBX 21 24 -2 -1
BITMAP
00000B000000
00002F800000
00007FE00000
0001FFF40000
0003E0BC0000
000140040000
000000000000
5500006AAA40
1BFFE80BFD00
01FF9002F000
00FF4002F000
00FF4001F000
00FF4001F000
00FF4001F000
00FF4001F000
00FF4001F000
01FF4001E000
00FF4001E000
00FF4001E000
00BFC003D000
007FE00BC000
002FFEBF4000
000BFFFD0000
00006A500000
ENDCHAR
STARTCHAR Udieresis
ENCODING 220
SWIDTH 725 0
DWIDTH 17 0
BBX 21 22 -2 -1
BITMAP
000064640000
0000F8BC0000
0000F8B80000
000010100000
000000000000
5500006AAA40
1BFFE80BFD00
01FF9002F000
00FF4002F000
00FF4001F000
00FF4001F000
00FF4001F000
00FF4001F000
00FF4001F000
01FF4001E000
00FF4001E000
00FF4001E000
00BFC003D000
007FE00BC000
002FFEBF4000
000BFFFD0000
00006A500000
ENDCHAR
STARTCHAR Yacute
ENCODING 221
SWIDTH 848 0
DWIDTH 20 0
BBX 25 24 -3 -2
BITMAP
0000000B800000
0000000FD00000
0000001FC00000
0000002F400000
0000002E000000
00000000000000
05556A40000000
6FFFF900000000
01BFF401FFFA40
000BFC002FE400
0002FE001E4000
0000FF807C0000
00003FD1F00000
00001FFBD00000
000007FF400000
000001FD000000
000000FD000000
000001FD000000
000001FD000000
000001FE000000
000001FE000000
000001FF400000
00001FFFF90000
0001AAAAAA4000
ENDCHAR
STARTCHAR Thorn
ENCODING 222
SWIDTH 745 0
DWIDTH 18 0
BBX 20 17 -2 -1
BITMAP
5555400000
1BFFFF9000
01BFF80000
002FD00000
002FFFFA40
002FFFFFF4
002FD016FE
002FD0007F
002FD0007F
001FD001FE
001FE6AFF4
001FFFFA40
001FF54000
001FE00000
007FF40000
06FFFF8000
1AAAAAA400
ENDCHAR
STARTCHAR germandbls
ENCODING 223
SWIDTH 986 0
DWIDTH 24 0
BBX 25 33 -1 -10
BITMAP
00000100000000
0000BFF8000000
0003FFFF400000
000BE01FC00000
001FC007E00000
002F4003F00000
003F0002F40000
007F0002F40000
007F0002F40000
007F0003F40000
007F400BE00000
2FFF401FD00000
2FFF402F800000
003F807F400000
003F80BF000000
002FC0BE000000
002FC0BF400000
002FC0BFE00000
001FD03FFE4000
001FD00BFFF400
000FD001FFFE00
000FE0601FFF80
000FE07801BFC0
000BE07E003F80
000BF07FE5BF40
000BF07BFFFD00
640BF0A06A9000
FD0BE040000000
FD0BE000000000
FC0FD000000000
7E7F8000000000
1FFE0000000000
01900000000000
ENDCHAR
STARTCHAR agrave
ENCODING 224
SWIDTH 572 0
DWIDTH 14 0
BBX 15 22 0 -1
BITMAP
0000A000
0007F000
0003F400
0002F800
0000FC00
0000A400
00000000
00050000
02FFF400
0BEAFE00
2F807F00
3FC03F40
2F803F80
05003F80
0BFFFF40
3FE6BF40
7F407F40
7F407F40
7FE6FF00
1BFFFF00
0055FFE4
00009554
ENDCHAR
STARTCHAR aacute
ENCODING 225
SWIDTH 572 0
DWIDTH 14 0
BBX 15 22 0 -1
BITMAP
00004000
0001E400
0002F800
0003F400
0007E000
0007D000
00004000
00050000
02FFF400
0BEAFE00
2F807F00
3FC03F40
2F803F80
05003F80
0BFFFF40
3FE6BF40
7F407F40
7F407F40
7FE6FF00
1BFFFF00
0055FFE4
00009554
ENDCHAR
STARTCHAR acircumflex
ENCODING 226
SWIDTH 572 0
DWIDTH 14 0
BBX 15 22 0 -1
BITMAP
00038000
000BE000
002FF400
007EFC00
00F42E00
00400500
00000000
00050000
02FFF400
0BEAFE00
2F807F00
3FC03F40
2F803F80
05003F80
0BFFFF40
3FE6BF40
7F407F40
7F407F40
7FE6FF00
1BFFFF00
0055FFE4
00009554
ENDCHAR
STARTCHAR atilde
ENCODING 227
SWIDTH 572 0
DWIDTH 14 0
BBX 15 20 0 -1
BITMAP
006E4600
00BFFE00
00BFFE00
0050A900
00000000
00050000
02FFF400
0BEAFE00
2F807F00
3FC03F40
2F803F80
05003F80
0BFFFF40
3FE6BF40
7F407F40
7F407F40
7FE6FF00
1BFFFF00
0055FFE4
00009554
ENDCHAR
STARTCHAR adieresis
ENCODING 228
SWIDTH 572 0
DWIDTH 14 0
BBX 15 19 0 -1
BITMAP
00606400
01F8FC00
00F4B800
00101000
00050000
02FFF400
0BEAFE00
2F807F00
3FC03F40
2F803F80
05003F80
0BFFFF40
3FE6BF40
7F407F40
7F407F40
7FE6FF00
1BFFFF00
0055FFE4
00009554
ENDCHAR
STARTCHAR aring
ENCODING 229
SWIDTH 572 0
DWIDTH 14 0
BBX 15 19 0 -1
BITMAP
0007D000
001FF400
002C7400
001EB400
000BE000
01FFF400
0BEAFE00
2F807F00
3FC03F40
2F803F80
05003F80
0BFFFF40
3FE6BF40
7F407F40
7F407F40
7FE6FF00
1BFFFF00
0055FFE4
00009554
ENDCHAR
STARTCHAR ae
ENCODING 230
SWIDTH 1022 0
DWIDTH 25 0
BBX 25 15 0 -1
BITMAP
00150000000000
06FFE000550000
1FEAFC1BFFD000
3F00FE7FEBF800
7F407FFE01FD00
3F407FFC00BF00
15007FFD55BF00
1BFFFFFFFFFF40
7F96FFFD555500
FF00BFFD000100
FE00FEBF906800
BF9AFE2FFFE000
2FFFFE06BA4000
0156FFD0000000
00019554000000
ENDCHAR
STARTCHAR ccedilla
ENCODING 231
SWIDTH 589 0
DWIDTH 14 0
BBX 14 21 0 -9
BITMAP
001AE400
01FFFF40
0BF96FD0
1FE01FE0
2FC01FE0
3FC00B80
7F800000
7F800010
3FC00020
2FE000E0
1FF907D0
07FFFF80
01BFFD00
001F5000
001F4000
003FD000
0006F000
0010B400
003EF000
002FD000
00010000
ENDCHAR
STARTCHAR egrave
ENCODING 232
SWIDTH 593 0
DWIDTH 14 0
BBX 14 21 0 -2
BITMAP
00019000
000BE000
0007F000
0002F400
0001F800
0000A400
00000000
00000000
006FE400
02FFFE00
0FF5BF80
2FD01FD0
3F800BE0
7FAA5BF0
7FFFFFF0
3FAA9550
2FC00000
1FE00180
0BFFAF40
01FFF800
00154000
ENDCHAR
STARTCHAR eacute
ENCODING 233
SWIDTH 593 0
DWIDTH 14 0
BBX 14 20 0 -2
BITMAP
0001E400
0002F800
0003F000
0007D000
0007C000
00000000
00000000
006FE400
02FFFE00
0FF5BF80
2FD01FD0
3F800BE0
7FAA5BF0
7FFFFFF0
3FAA9550
2FC00000
1FE00180
0BFFAF40
01FFF800
00154000
ENDCHAR
STARTCHAR ecircumflex
ENCODING 234
SWIDTH 593 0
DWIDTH 14 0
BBX 14 20 0 -2
BITMAP
00038000
000BE000
002FF400
007EFC00
00F42E00
00400500
00000000
006FE400
02FFFE00
0FF5BF80
2FD01FD0
3F800BE0
7FAA5BF0
7FFFFFF0
3FAA9550
2FC00000
1FE00180
0BFFAF40
01FFF800
00154000
ENDCHAR
STARTCHAR edieresis
ENCODING 235
SWIDTH 593 0
DWIDTH 14 0
BBX 14 18 0 -2
BITMAP
00281800
007D7E00
007D3D00
00000400
00000000
006FE400
02FFFE00
0FF5BF80
2FD01FD0
3F800BE0
7FAA5BF0
7FFFFFF0
3FAA9550
2FC00000
1FE00180
0BFFAF40
01FFF800
00154000
ENDCHAR
STARTCHAR igrave
ENCODING 236
SWIDTH 393 0
DWIDTH 9 0
BBX 10 21 0 0
BITMAP
006000
07F000
03F400
01F800
00FC00
007400
000000
000000
555500
2FFE00
02FE00
01FE00
01FE00
00FD00
00FD00
00FD00
00FD00
00FD00
01FD00
0BFF40
6FFFE0
ENDCHAR
STARTCHAR iacute
ENCODING 237
SWIDTH 393 0
DWIDTH 9 0
BBX 10 20 0 0
BITMAP
002E00
003F40
007F00
00BD00
00B800
000000
000000
555500
2FFE00
02FE00
01FE00
01FE00
00FD00
00FD00
00FD00
00FD00
00FD00
01FD00
0BFF40
6FFFE0
ENDCHAR
STARTCHAR icircumflex
ENCODING 238
SWIDTH 393 0
DWIDTH 9 0
BBX 10 21 0 0
BITMAP
007400
01FD00
03FF00
0BEF80
2F47D0
040040
000000
000000
555500
2FFE00
02FE00
01FE00
01FE00
00FD00
00FD00
00FD00
00FD00
00FD00
01FD00
0BFF40
6FFFE0
ENDCHAR
STARTCHAR idieresis
ENCODING 239
SWIDTH 393 0
DWIDTH 9 0
BBX 10 18 0 0
BITMAP
024280
0BC7D0
07C7D0
010000
000000
555500
2FFE00
02FE00
01FE00
01FE00
00FD00
00FD00
00FD00
00FD00
00FD00
01FD00
0BFF40
6FFFE0
ENDCHAR
STARTCHAR eth
ENCODING 240
SWIDTH 672 0
DWIDTH 16 0
BBX 17 23 -1 -3
BITMAP
0040000000
0068001D00
000B80BE00
0002FBF800
0000BFD000
0002FF8000
001FFFD000
003FD7F400
001E02FC00
000400FE00
000154BF00
00BFFFFF40
07FFABFF80
1FF401FFC0
3FD0007FC0
3F80002FC0
7F80002FC0
3F80002F80
2FD0007F40
1FF401FE00
07FEAFF800
006FFF9000
0001540000
ENDCHAR
STARTCHAR ntilde
ENCODING 241
SWIDTH 643 0
DWIDTH 15 0
BBX 19 18 -2 1
BITMAP
0001F92400
0003FFF400
0003FFF400
0002069000
0000000000
0000000000
016BC6A400
7FFFFFFE00
06FFFFFF40
003FD07F80
003F802FC0
003F401F80
002F401F80
002F401F80
002F401F40
02FFE41F40
055545BFD0
0000065554
ENDCHAR
STARTCHAR ograve
ENCODING 242
SWIDTH 705 0
DWIDTH 17 0
BBX 17 20 0 -1
BITMAP
0000600000
0007F40000
0003F80000
0001FC0000
0000BD0000
0000740000
0000000000
0005540000
01FFFF9000
0FFE6BF800
3FE001FE00
7F8000BF40
BF40007F80
BF00007F80
BF40007F80
7F8000BF00
2FE002FD00
07FEBFF400
00BFFE4000
0000400000
ENDCHAR
STARTCHAR oacute
ENCODING 243
SWIDTH 705 0
DWIDTH 17 0
BBX 17 19 0 -1
BITMAP
0000B80000
0000FD0000
0001F80000
0002F40000
0002E00000
0000000000
0005540000
01FFFF9000
0FFE6BF800
3FE001FE00
7F8000BF40
BF40007F80
BF00007F80
BF40007F80
7F8000BF00
2FE002FD00
07FEBFF400
00BFFE4000
0000400000
ENDCHAR
STARTCHAR ocircumflex
ENCODING 244
SWIDTH 705 0
DWIDTH 17 0
BBX 17 20 0 -1
BITMAP
0000E00000
0002F40000
000BFD0000
001FBF0000
003D0B8000
0010014000
0000000000
0005540000
01FFFF9000
0FFE6BF800
3FE001FE00
7F8000BF40
BF40007F80
BF00007F80
BF40007F80
7F8000BF00
2FE002FD00
07FEBFF400
00BFFE4000
0000400000
ENDCHAR
STARTCHAR otilde
ENCODING 245
SWIDTH 705 0
DWIDTH 17 0
BBX 17 18 0 -1
BITMAP
001B918000
002FFF8000
002FFF8000
00106A0000
0000000000
0005540000
01FFFF9000
0FFE6BF800
3FE001FE00
7F8000BF40
BF40007F80
BF00007F80
BF40007F80
7F8000BF00
2FE002FD00
07FEBFF400
00BFFE4000
0000400000
ENDCHAR
STARTCHAR odieresis
ENCODING 246
SWIDTH 705 0
DWIDTH 17 0
BBX 17 18 0 -1
BITMAP
00090A0000
002F5F8000
001F0F4000
0004000000
0000000000
0005540000
01FFFF9000
0FFE6BF800
3FE001FE00
7F8000BF40
BF40007F80
BF00007F80
BF40007F80
7F8000BF00
2FE002FD00
07FEBFF400
00BFFE4000
0000400000
ENDCHAR
STARTCHAR divide
ENCODING 247
SWIDTH 504 0
DWIDTH 12 0
BBX 12 15 0 -1
BITMAP
001900
00BF80
00FF80
00BF40
001400
695550
BFFFFF
BFFFFE
BFAAA9
000000
006900
00FF40
01FF80
00BF00
000400
ENDCHAR
STARTCHAR oslash
ENCODING 248
SWIDTH 705 0
DWIDTH 17 0
BBX 17 18 0 -3
BITMAP
0000004000
000001E000
000003F800
00055BF000
01FFFFE000
0FFE7FF800
3FE07FFE00
7F80FEBF40
BF42FC7F80
BF03F47F80
BF4BE07F80
7F9FD0BF00
2FFF82FD00
07FFBFF400
01FFFE4000
02F8400000
03F0000000
0190000000
ENDCHAR
STARTCHAR ugrave
ENCODING 249
SWIDTH 614 0
DWIDTH 15 0
BBX 18 21 -2 -1
BITMAP
0000600000
0003F40000
0002F80000
0001FC0000
0000BD0000
0000740000
0000000000
0000000000
6AA9155540
1BFD0BFF40
02FD00BF40
01FC007F00
01FC007F00
02FC00BE00
02FC00BE00
01FC00BD00
01FC00BD00
00FE02FC00
007FFFFD00
001FFEBFE0
000050BA40
ENDCHAR
STARTCHAR uacute
ENCODING 250
SWIDTH 614 0
DWIDTH 15 0
BBX 18 20 -2 -1
BITMAP
00002E0000
00003F4000
00007E0000
0000BD0000
0000B80000
0000000000
0000000000
6AA9155540
1BFD0BFF40
02FD00BF40
01FC007F00
01FC007F00
02FC00BE00
02FC00BE00
01FC00BD00
01FC00BD00
00FE02FC00
007FFFFD00
001FFEBFE0
000050BA40
ENDCHAR
STARTCHAR ucircumflex
ENCODING 251
SWIDTH 614 0
DWIDTH 15 0
BBX 18 20 -2 -1
BITMAP
0000780000
0000FD0000
0002FF0000
000BEF8000
001F46E000
0004004000
0000000000
6AA9155540
1BFD0BFF40
02FD00BF40
01FC007F00
01FC007F00
02FC00BE00
02FC00BE00
01FC00BD00
01FC00BD00
00FE02FC00
007FFFFD00
001FFEBFE0
000050BA40
ENDCHAR
STARTCHAR udieresis
ENCODING 252
SWIDTH 614 0
DWIDTH 15 0
BBX 18 18 -2 -1
BITMAP
0006064000
001F8FC000
000F4B8000
0001010000
0000000000
6AA9155540
1BFD0BFF40
02FD00BF40
01FC007F00
01FC007F00
02FC00BE00
02FC00BE00
01FC00BD00
01FC00BD00
00FE02FC00
007FFFFD00
001FFEBFE0
000050BA40
ENDCHAR
STARTCHAR yacute
ENCODING 253
SWIDTH 655 0
DWIDTH 16 0
BBX 16 30 -1 -11
BITMAP
0000B800
0000FD00
0001F800
0002F400
0002E000
00000000
90000000
3E40AA54
0FF91FFF
07FD02FF
07FC00FF
0BF800FF
0FF400FE
0FF001FE
0FF401FE
0FF801FE
07FFEFFE
01FFFFFE
001651FE
000001FE
000001FD
000001FD
000002FD
078002FD
0FE003FC
0FE007F8
0BC00BF4
07F56FD0
01FFFF40
001AA400
ENDCHAR
STARTCHAR thorn
ENCODING 254
SWIDTH 734 0
DWIDTH 18 0
BBX 20 27 -2 -10
BITMAP
6AAA900000
1BFFD00000
01BFD00000
002FD00000
002FD00000
002FD00000
002FD00000
002FD00000
001FD00000
001FEAA900
001FFFFFE0
001FE45BF8
001FD002FD
001FD000FE
001FD000BE
001FD000FE
001FD001FE
001FE407FC
001FFFFFF4
000FEFFF80
000FD01000
000FD00000
000FE00000
000FE00000
001FE00000
01BFFE4000
1BEAAA9000
ENDCHAR
STARTCHAR ydieresis
ENCODING 255
SWIDTH 655 0
DWIDTH 16 0
BBX 16 29 -1 -11
BITMAP
00181900
007E3F00
003D2E00
00040400
00000000
90000000
3E40AA54
0FF91FFF
07FD02FF
07FC00FF
0BF800FF
0FF400FE
0FF001FE
0FF401FE
0FF801FE
07FFEFFE
01FFFFFE
001651FE
000001FE
000001FD
000001FD
000002FD
078002FD
0FE003FC
0FE007F8
0BC00BF4
07F56FD0
01FFFF40
001AA400
ENDCHAR
STARTCHAR dotlessi
ENCODING 305
SWIDTH 393 0
DWIDTH 9 0
BBX 10 13 0 0
BITMAP
555500
2FFE00
02FE00
01FE00
01FE00
00FD00
00FD00
00FD00
00FD00
00FD00
01FD00
0BFF40
6FFFE0
ENDCHAR
STARTCHAR Lslash
ENCODING 321
SWIDTH 713 0
DWIDTH 17 0
BBX 19 19 -2 0
BITMAP
6FFFFFE400
06FFFF4000
002FF40000
001FF40000
001FF40000
001FF58000
000FFFD000
000FFFE000
001FFFD000
01FFF90008
0BFFF0000C
07FFF0001C
024BF0002C
000BF0007C
000BF000BC
000BF000FC
001FFFAAFC
01FFFFFFFC
1AAA555500
ENDCHAR
STARTCHAR lslash
ENCODING 322
SWIDTH 365 0
DWIDTH 9 0
BBX 12 23 -2 -2
BITMAP
6AAA80
1BFF80
01BF80
007F80
007F80
007F80
007F80
007F9A
007FFF
007FFE
07FFE4
3FFF40
2FFF40
1E7F40
043F40
003F40
003F40
003F40
002F40
002F00
007F80
02FFF4
0AAAA5
ENDCHAR
STARTCHAR OE
ENCODING 338
SWIDTH 1195 0
DWIDTH 29 0
BBX 28 19 0 -1
BITMAP
00000000000015
00000055AABFFE
00006FFFFFFFFE
000001BFF9503E
0015940FF8002E
02FFFF4FF8040E
0FF96FEFF8080A
2FD007FFF81C05
7F8002FFF83C01
BF0001FFF9BC00
BF0000FFFFFC04
BF0001FFFFF808
7F4001FFF47808
3F8003FFF4280C
1FE01BFBF4081C
07FFFF8BF4042C
006FF91BF96ABC
000002FFFFFFFC
00001AAA955554
ENDCHAR
STARTCHAR oe
ENCODING 339
SWIDTH 1087 0
DWIDTH 26 0
BBX 26 13 0 -2
BITMAP
006FE9001A5000
0BFFFF86FFF800
2FE01FFFFAFF40
7F4007FF807FC0
BF0002FF401FD0
BE0002FF555FE0
BE0002FFFFFFE0
7F4003FFAAAAA0
2F800BFF000000
0BFABFFF900180
01BFF91FFAAF00
00050006FFF800
00000000154000
ENDCHAR
STARTCHAR Scaron
ENCODING 352
SWIDTH 661 0
DWIDTH 16 0
BBX 16 25 0 -2
BITMAP
00B40B00
007EBE00
002FF800
000BF000
0003D000
00014000
00000001
006A9409
0BFFFE6C
2FE56FFC
7F4002FC
BF400078
BFE40018
7FFF9004
2FFFFE40
0BFFFFE0
006FFFF8
0001BFFD
18000BFE
1D0003FE
1F4003FD
2FE96FF4
29FFFFD0
241AA500
20000000
ENDCHAR
STARTCHAR scaron
ENCODING 353
SWIDTH 533 0
DWIDTH 13 0
BBX 13 23 0 -1
BITMAP
03907800
02FAF400
00BFE000
003F8000
001F0000
00050000
00000000
00000000
06FE4200
1FFFF700
3F41BF00
7E002F00
7F800B00
7FF90200
1FFFE400
07FFFD00
206FFF40
3401FF80
3D003F80
7F907F40
7BFFFE00
61AFA400
40000000
ENDCHAR
STARTCHAR Ydieresis
ENCODING 376
SWIDTH 848 0
DWIDTH 20 0
BBX 25 23 -3 -2
BITMAP
00000242800000
00000BD7D00000
000007C7D00000
00000100000000
00000000000000
05556A40000000
6FFFF900000000
01BFF401FFFA40
000BFC002FE400
0002FE001E4000
0000FF807C0000
00003FD1F00000
00001FFBD00000
000007FF400000
000001FD000000
000000FD000000
000001FD000000
000001FD000000
000001FE000000
000001FE000000
000001FF400000
00001FFFF90000
0001AAAAAA4000
ENDCHAR
STARTCHAR Zcaron
ENCODING 381
SWIDTH 685 0
DWIDTH 16 0
BBX 17 22 0 0
BITMAP
0038078000
002FAF4000
000FFE0000
0003F80000
0001F00000
0000500000
0000000000
15555AAA80
7FFFFFFF40
7FEAAFFE00
3D001FF800
2D007FF000
1C01FFD000
0C03FF4000
040BFE0100
002FF80300
00BFF00700
01FFD00F00
07FF401F00
0FFFA97F00
3FFFFFFE00
5AAAAAA900
ENDCHAR
STARTCHAR zcaron
ENCODING 382
SWIDTH 549 0
DWIDTH 13 0
BBX 14 21 0 -1
BITMAP
02D02C00
01FAF800
00BFF000
002FC000
000F4000
00050000
00000000
15555590
BFFFFFD0
7FAAFF80
3C02FF00
3C07FD00
281FF400
243FE040
10BFC180
02FF4280
07FD0380
0FF80B80
3FFFFF80
6AFFFF80
00001540
ENDCHAR
STARTCHAR circumflex
ENCODING 710
SWIDTH 714 0
DWIDTH 17 0
BBX 9 6 5 16
BITMAP
01D000
07F400
0FFC00
2FBE00
7D1B80
100100
ENDCHAR
STARTCHAR caron
ENCODING 711
SWIDTH 714 0
DWIDTH 17 0
BBX 9 6 5 16
BITMAP
780B40
3F7F00
1FFD00
07F400
02E000
004000
ENDCHAR
STARTCHAR breve
ENCODING 728
SWIDTH 715 0
DWIDTH 17 0
BBX 9 6 5 17
BITMAP
100100
780B40
3FBF00
1FFD00
07F400
004000
ENDCHAR
STARTCHAR dotaccent
ENCODING 729
SWIDTH 708 0
DWIDTH 17 0
BBX 3 4 7 19
BITMAP
64
FC
B8
10
ENDCHAR
STARTCHAR ring
ENCODING 730
SWIDTH 704 0
DWIDTH 17 0
BBX 5 6 7 17
BITMAP
0400
7F40
F780
E2C0
BF80
2900
ENDCHAR
STARTCHAR ogonek
ENCODING 731
SWIDTH 988 0
DWIDTH 24 0
BBX 9 6 7 -3
BITMAP
2D0000
3C0000
7D0000
7F9680
3FFF80
0AE900
ENDCHAR
STARTCHAR tilde
ENCODING 732
SWIDTH 707 0
DWIDTH 17 0
BBX 8 4 5 17
BITMAP
2F96
7FFF
7FFF
5069
ENDCHAR
STARTCHAR hungarumlaut
ENCODING 733
SWIDTH 671 0
DWIDTH 16 0
BBX 8 7 5 17
BITMAP
1010
3D79
7FBF
BEBD
FDF8
B5B4
1010
ENDCHAR
STARTCHAR endash
ENCODING 8211
SWIDTH 576 0
DWIDTH 14 0
BBX 12 4 1 7
BITMAP
6AAAA9
BFFFFD
BFFFFD
6AAAA9
ENDCHAR
STARTCHAR emdash
ENCODING 8212
SWIDTH 993 0
DWIDTH 24 0
BBX 22 4 1 7
BITMAP
155555555680
BFFFFFFFFFD0
BFFFFFFFFFD0
6BFFFFFFFFD0
ENDCHAR
STARTCHAR quoteleft
ENCODING 8216
SWIDTH 261 0
DWIDTH 6 0
BBX 6 8 0 10
BITMAP
0100
0790
0BF0
1FD0
3FC0
7F80
6F40
0600
ENDCHAR
STARTCHAR quoteright
ENCODING 8217
SWIDTH 301 0
DWIDTH 7 0
BBX 6 7 1 10
BITMAP
2E40
3FD0
7FC0
BF40
FE00
FD00
1800
ENDCHAR
STARTCHAR quotesinglbase
ENCODING 8218
SWIDTH 332 0
DWIDTH 8 0
BBX 6 7 1 -2
BITMAP
2E40
3FD0
7FC0
BF40
FE00
FD00
1800
ENDCHAR
STARTCHAR quotedblleft
ENCODING 8220
SWIDTH 477 0
DWIDTH 11 0
BBX 11 8 0 10
BITMAP
010040
0790F4
0BF2FC
1FD3F8
3FCBF4
7F9FF0
6F5BE0
060090
ENDCHAR
STARTCHAR quotedblright
ENCODING 8221
SWIDTH 477 0
DWIDTH 11 0
BBX 11 8 0 10
BITMAP
040100
0F43D0
1FE7FC
2FDBF8
3F8FF0
7F5FD0
BE1FC0
190240
ENDCHAR
STARTCHAR quotedblbase
ENCODING 8222
SWIDTH 477 0
DWIDTH 11 0
BBX 11 8 0 -2
BITMAP
040100
0F43D0
1FE7FC
2FDBF8
3F8FF0
7F5FD0
BE1FC0
190240
ENDCHAR
STARTCHAR dagger
ENCODING 8224
SWIDTH 487 0
DWIDTH 12 0
BBX 11 27 0 -7
BITMAP
00FF00
00FF00
00FF00
00BF00
00BF00
15FF00
7FFFFC
7FFFFC
7FFFFC
55BF00
00BF00
00BE00
00BE00
00BE00
00BE00
00BE00
00BE00
00BE00
00BE00
00BE00
007E00
007E00
007E00
007E00
007E00
007E00
007D00
ENDCHAR
STARTCHAR daggerdbl
ENCODING 8225
SWIDTH 497 0
DWIDTH 12 0
BBX 12 27 0 -7
BITMAP
00FF00
00FF00
00FF00
00BF00
00BF00
15FF00
7FFFFC
7FFFFC
7FFFFC
55BF00
00BF00
00BF58
7FFFFC
7FFFFC
7FFFFD
00BE54
00BE00
00BE00
00BE00
00BE00
007E00
007E00
007E00
007E00
007E00
007E00
007D00
ENDCHAR
STARTCHAR bullet
ENCODING 8226
SWIDTH 275 0
DWIDTH 7 0
BBX 7 7 0 6
BITMAP
0540
2FE0
BFF4
FFF8
FFF8
7FF0
2FD0
ENDCHAR
STARTCHAR ellipsis
ENCODING 8230
SWIDTH 787 0
DWIDTH 19 0
BBX 19 4 0 -2
BITMAP
2F41B807E0
BFC3FE0FF4
BFC3FF1FF8
2F41FD0BE0
ENDCHAR
STARTCHAR perthousand
ENCODING 8240
SWIDTH 888 0
DWIDTH 21 0
BBX 23 20 0 -1
BITMAP
000005000000
06400FD00000
7FF41FC00000
BDBC3F800000
F87D7F000000
F8BCBE000000
7FF8FD000000
1B91FC000000
0003F4000000
0007F0000000
000BE0000000
000FC0000000
001F80400400
003F4BF8BFD0
007E2FBFFBF0
00BD3D2FE1F4
00FC3D2FE1F4
01F42FBFFBE0
03F00BF8BF80
02E000400400
ENDCHAR
STARTCHAR guilsinglleft
ENCODING 8249
SWIDTH 234 0
DWIDTH 6 0
BBX 6 13 0 -1
BITMAP
0080
02D0
07C0
0F80
2F40
7E00
BD00
7F00
2F40
0B80
03D0
01C0
0040
ENDCHAR
STARTCHAR guilsinglright
ENCODING 8250
SWIDTH 223 0
DWIDTH 5 0
BBX 6 13 0 -1
BITMAP
5000
B000
7800
3E00
2F40
0FC0
0FD0
1F80
2F00
3D00
B800
B000
1000
ENDCHAR
STARTCHAR fraction
ENCODING 8260
SWIDTH 600 0
DWIDTH 14 0
BBX 16 23 -1 -3
BITMAP
000000A0
000001F9
000003FF
00000BFD
00000FF8
00002FF0
00007FD0
0000BFC0
0001FF40
0003FE00
000BFC00
000FF400
002FE000
007FD000
00FF8000
01FF0000
03FD0000
0BF80000
1FF00000
2FD00000
7F800000
7F400000
0A000000
ENDCHAR
STARTCHAR Euro
ENCODING 8364
SWIDTH 590 0
DWIDTH 14 0
BBX 16 15 -1 1
BITMAP
0001A900
001FFFD0
007F96F4
00FD01FC
02F802FC
57F951F8
BFFFF400
AFFAA400
07F55400
BFFFFD01
5BFEA909
01FE006C
00BFEAF4
002FFFD0
0006FA00
ENDCHAR
STARTCHAR trademark
ENCODING 8482
SWIDTH 624 0
DWIDTH 15 0
BBX 15 11 0 7
BITMAP
05000000
0D000000
2C000000
FF800000
3C400000
386FBAE0
380B6E74
380A1D34
384A0C34
3E9A5D68
1A005500
ENDCHAR
STARTCHAR minus
ENCODING 8722
SWIDTH 549 0
DWIDTH 13 0
BBX 13 5 0 6
BITMAP
55500000
BFFFFF80
BFFFFFC0
BFFFFF80
AAAA9540
ENDCHAR
STARTCHAR fi
ENCODING 64257
SWIDTH 757 0
DWIDTH 18 0
BBX 20 33 -1 -10
BITMAP
0000BFE000
0007FFFD00
001FD0BF40
002F402FC0
007F002FD0
007F007FD0
00BF007FD0
00BF003FC0
00BF000600
00BF000000
007F400140
2FFFFFFFE0
2FFFFFFFD0
007F802FD0
003F802FD0
003FC01FD0
002FC01FC0
002FC01FC0
002FD01FC0
001FD00FC0
001FD01FC0
000FE0BFF4
000FE7FFFE
000FE00000
000BF00000
000BF00000
640BF00000
FD0BF00000
FD0BE00000
FC0FD00000
7E6F800000
1FFE000000
0194000000
ENDCHAR
STARTCHAR fl
ENCODING 64258
SWIDTH 776 0
DWIDTH 19 0
BBX 21 33 -1 -10
BITMAP
0001BFE40000
0007FFFD0000
001FC0BF4000
002F403FC000
003F002FD000
007F001FD000
00BF001FE000
00BF001FE000
00BF001FE000
00BF001FE000
007F401FE000
2FFFFF4FE000
2FFFFF4FE000
007F800FE000
003F800FE000
003FC00FE000
002FC00FD000
002FC00FD000
002FD00FD000
001FD00BD000
001FD00BD000
000FE00BD000
000FE01FE000
000FE0BFFD00
000BF2AAA940
000BF0000000
640BF0000000
FD0BF0000000
FD0BE0000000
FC0FD0000000
7E6F80000000
1FFE00000000
019400000000
ENDCHAR
STARTCHAR .notdef
ENCODING -1
SWIDTH 320 0
DWIDTH 8 0
BBX 1 1 0 0
BITMAP
00
ENDCHAR
ENDFONT
